<svg width="36" height="36" viewBox="0 0 36 36" fill="none" xmlns="http://www.w3.org/2000/svg">
<path d="M18.0013 0C13.1128 0 12.4993 0.0213753 10.5792 0.10875C8.66296 0.1965 7.35495 0.499875 6.21044 0.945C5.02655 1.40475 4.02229 2.01975 3.02178 3.02063C2.02052 4.02113 1.40551 5.02537 0.94426 6.20887C0.498005 7.35375 0.194252 8.66213 0.108001 10.5776C0.0225003 12.4976 0 13.1115 0 18C0 22.8885 0.0217506 23.5001 0.108751 25.4201C0.196877 27.3364 0.500255 28.6444 0.94501 29.7889C1.40514 30.9728 2.02015 31.977 3.02103 32.9775C4.02117 33.9788 5.02543 34.5953 6.20857 35.055C7.35383 35.5001 8.66222 35.8035 10.5781 35.8913C12.4981 35.9786 13.1113 36 17.9994 36C22.8884 36 23.5 35.9786 25.42 35.8913C27.3363 35.8035 28.6458 35.5001 29.7911 35.055C30.9746 34.5953 31.9773 33.9788 32.9775 32.9775C33.9787 31.977 34.5937 30.9728 35.055 29.7893C35.4975 28.6444 35.8013 27.336 35.8913 25.4205C35.9775 23.5005 36 22.8885 36 18C36 13.1115 35.9775 12.498 35.8913 10.578C35.8013 8.66175 35.4975 7.35375 35.055 6.20925C34.5937 5.02537 33.9787 4.02113 32.9775 3.02063C31.9762 2.01938 30.975 1.40438 29.7899 0.945C28.6424 0.499875 27.3337 0.1965 25.4174 0.10875C23.4974 0.0213753 22.8861 0 17.9961 0H18.0013ZM16.3865 3.24375C16.8658 3.243 17.4006 3.24375 18.0013 3.24375C22.8074 3.24375 23.377 3.261 25.2749 3.34725C27.0299 3.4275 27.9824 3.72075 28.6169 3.96713C29.4569 4.29338 30.0558 4.68338 30.6854 5.31338C31.3155 5.94338 31.7055 6.54338 32.0325 7.38338C32.2788 8.01713 32.5725 8.96962 32.6523 10.7246C32.7386 12.6221 32.7573 13.1921 32.7573 17.9959C32.7573 22.7996 32.7386 23.3696 32.6523 25.2671C32.5721 27.0221 32.2788 27.9746 32.0325 28.6084C31.7062 29.4484 31.3155 30.0465 30.6854 30.6761C30.0554 31.3061 29.4573 31.6961 28.6169 32.0224C27.9832 32.2699 27.0299 32.5624 25.2749 32.6426C23.3774 32.7289 22.8074 32.7476 18.0013 32.7476C13.1949 32.7476 12.6253 32.7289 10.7277 32.6426C8.97272 32.5616 8.02021 32.2684 7.38533 32.022C6.54532 31.6957 5.94531 31.3057 5.31531 30.6758C4.6853 30.0458 4.2953 29.4473 3.96829 28.6069C3.72191 27.9731 3.42829 27.0206 3.34841 25.2656C3.26216 23.3681 3.24491 22.7981 3.24491 17.9914C3.24491 13.1846 3.26216 12.6176 3.34841 10.7201C3.42866 8.96513 3.72191 8.01262 3.96829 7.37812C4.29455 6.53812 4.6853 5.93813 5.31531 5.30813C5.94531 4.67813 6.54532 4.28812 7.38533 3.96112C8.01983 3.71362 8.97272 3.42113 10.7277 3.3405C12.3883 3.2655 13.0318 3.243 16.3865 3.23925V3.24375Z" fill="url(#paint0_radial_34_190)"/>
<path d="M27.571 6.18828C27.1437 6.18828 26.7261 6.31499 26.3708 6.55236C26.0156 6.78974 25.7387 7.12713 25.5753 7.52186C25.4118 7.91659 25.3691 8.35094 25.4525 8.76995C25.5359 9.18897 25.7417 9.57385 26.0439 9.8759C26.346 10.178 26.731 10.3836 27.15 10.4669C27.5691 10.5501 28.0034 10.5072 28.3981 10.3436C28.7928 10.18 29.1301 9.90308 29.3673 9.54777C29.6046 9.19246 29.7311 8.77477 29.731 8.34753C29.731 7.15503 28.7635 6.18753 27.571 6.18753V6.18828Z" fill="url(#paint1_radial_34_190)"/>
<path fill-rule="evenodd" clip-rule="evenodd" d="M17.9626 8.71203C12.8577 8.71203 8.71876 12.8509 8.71876 17.9558C8.71876 23.0607 12.8577 27.1977 17.9626 27.1977C23.0675 27.1977 27.2053 23.0607 27.2053 17.9558C27.2053 12.8509 23.0675 8.71203 17.9626 8.71203ZM18 23.9063C21.2619 23.9063 23.9063 21.262 23.9063 18C23.9063 14.7381 21.2619 12.0938 18 12.0938C14.7381 12.0938 12.0938 14.7381 12.0938 18C12.0938 21.262 14.7381 23.9063 18 23.9063Z" fill="url(#paint2_radial_34_190)"/>
<path d="M18.0013 0C13.1128 0 12.4993 0.0213753 10.5792 0.10875C8.66296 0.1965 7.35495 0.499875 6.21044 0.945C5.02655 1.40475 4.02229 2.01975 3.02178 3.02063C2.02052 4.02113 1.40551 5.02537 0.94426 6.20887C0.498005 7.35375 0.194252 8.66213 0.108001 10.5776C0.0225003 12.4976 0 13.1115 0 18C0 22.8885 0.0217506 23.5001 0.108751 25.4201C0.196877 27.3364 0.500255 28.6444 0.94501 29.7889C1.40514 30.9728 2.02015 31.977 3.02103 32.9775C4.02117 33.9788 5.02543 34.5953 6.20857 35.055C7.35383 35.5001 8.66222 35.8035 10.5781 35.8913C12.4981 35.9786 13.1113 36 17.9994 36C22.8884 36 23.5 35.9786 25.42 35.8913C27.3363 35.8035 28.6458 35.5001 29.7911 35.055C30.9746 34.5953 31.9773 33.9788 32.9775 32.9775C33.9787 31.977 34.5937 30.9728 35.055 29.7893C35.4975 28.6444 35.8013 27.336 35.8913 25.4205C35.9775 23.5005 36 22.8885 36 18C36 13.1115 35.9775 12.498 35.8913 10.578C35.8013 8.66175 35.4975 7.35375 35.055 6.20925C34.5937 5.02537 33.9787 4.02113 32.9775 3.02063C31.9762 2.01938 30.975 1.40438 29.7899 0.945C28.6424 0.499875 27.3337 0.1965 25.4174 0.10875C23.4974 0.0213753 22.8861 0 17.9961 0H18.0013ZM16.3865 3.24375C16.8658 3.243 17.4006 3.24375 18.0013 3.24375C22.8074 3.24375 23.377 3.261 25.2749 3.34725C27.0299 3.4275 27.9824 3.72075 28.6169 3.96713C29.4569 4.29338 30.0558 4.68338 30.6854 5.31338C31.3155 5.94338 31.7055 6.54338 32.0325 7.38338C32.2788 8.01713 32.5725 8.96962 32.6523 10.7246C32.7386 12.6221 32.7573 13.1921 32.7573 17.9959C32.7573 22.7996 32.7386 23.3696 32.6523 25.2671C32.5721 27.0221 32.2788 27.9746 32.0325 28.6084C31.7062 29.4484 31.3155 30.0465 30.6854 30.6761C30.0554 31.3061 29.4573 31.6961 28.6169 32.0224C27.9832 32.2699 27.0299 32.5624 25.2749 32.6426C23.3774 32.7289 22.8074 32.7476 18.0013 32.7476C13.1949 32.7476 12.6253 32.7289 10.7277 32.6426C8.97272 32.5616 8.02021 32.2684 7.38533 32.022C6.54532 31.6957 5.94531 31.3057 5.31531 30.6758C4.6853 30.0458 4.2953 29.4473 3.96829 28.6069C3.72191 27.9731 3.42829 27.0206 3.34841 25.2656C3.26216 23.3681 3.24491 22.7981 3.24491 17.9914C3.24491 13.1846 3.26216 12.6176 3.34841 10.7201C3.42866 8.96513 3.72191 8.01262 3.96829 7.37812C4.29455 6.53812 4.6853 5.93813 5.31531 5.30813C5.94531 4.67813 6.54532 4.28812 7.38533 3.96112C8.01983 3.71362 8.97272 3.42113 10.7277 3.3405C12.3883 3.2655 13.0318 3.243 16.3865 3.23925V3.24375Z" fill="url(#paint3_radial_34_190)"/>
<path d="M27.571 6.18828C27.1437 6.18828 26.7261 6.31499 26.3708 6.55236C26.0156 6.78974 25.7387 7.12713 25.5753 7.52186C25.4118 7.91659 25.3691 8.35094 25.4525 8.76995C25.5359 9.18897 25.7417 9.57385 26.0439 9.8759C26.346 10.178 26.731 10.3836 27.15 10.4669C27.5691 10.5501 28.0034 10.5072 28.3981 10.3436C28.7928 10.18 29.1301 9.90308 29.3673 9.54777C29.6046 9.19246 29.7311 8.77477 29.731 8.34753C29.731 7.15503 28.7635 6.18753 27.571 6.18753V6.18828Z" fill="url(#paint4_radial_34_190)"/>
<path fill-rule="evenodd" clip-rule="evenodd" d="M17.9626 8.71203C12.8577 8.71203 8.71876 12.8509 8.71876 17.9558C8.71876 23.0607 12.8577 27.1977 17.9626 27.1977C23.0675 27.1977 27.2053 23.0607 27.2053 17.9558C27.2053 12.8509 23.0675 8.71203 17.9626 8.71203ZM18 23.9063C21.2619 23.9063 23.9063 21.262 23.9063 18C23.9063 14.7381 21.2619 12.0938 18 12.0938C14.7381 12.0938 12.0938 14.7381 12.0938 18C12.0938 21.262 14.7381 23.9063 18 23.9063Z" fill="url(#paint5_radial_34_190)"/>
<defs>
<radialGradient id="paint0_radial_34_190" cx="0" cy="0" r="1" gradientUnits="userSpaceOnUse" gradientTransform="translate(9.56255 38.7728) rotate(-90) scale(35.6787 33.184)">
<stop stop-color="#FFDD55"/>
<stop offset="0.1" stop-color="#FFDD55"/>
<stop offset="0.5" stop-color="#FF543E"/>
<stop offset="1" stop-color="#C837AB"/>
</radialGradient>
<radialGradient id="paint1_radial_34_190" cx="0" cy="0" r="1" gradientUnits="userSpaceOnUse" gradientTransform="translate(9.56255 38.7728) rotate(-90) scale(35.6787 33.184)">
<stop stop-color="#FFDD55"/>
<stop offset="0.1" stop-color="#FFDD55"/>
<stop offset="0.5" stop-color="#FF543E"/>
<stop offset="1" stop-color="#C837AB"/>
</radialGradient>
<radialGradient id="paint2_radial_34_190" cx="0" cy="0" r="1" gradientUnits="userSpaceOnUse" gradientTransform="translate(9.56255 38.7728) rotate(-90) scale(35.6787 33.184)">
<stop stop-color="#FFDD55"/>
<stop offset="0.1" stop-color="#FFDD55"/>
<stop offset="0.5" stop-color="#FF543E"/>
<stop offset="1" stop-color="#C837AB"/>
</radialGradient>
<radialGradient id="paint3_radial_34_190" cx="0" cy="0" r="1" gradientUnits="userSpaceOnUse" gradientTransform="translate(-6.03019 2.59338) rotate(78.6806) scale(15.9485 65.7404)">
<stop stop-color="#3771C8"/>
<stop offset="0.128" stop-color="#3771C8"/>
<stop offset="1" stop-color="#6600FF" stop-opacity="0"/>
</radialGradient>
<radialGradient id="paint4_radial_34_190" cx="0" cy="0" r="1" gradientUnits="userSpaceOnUse" gradientTransform="translate(-6.03019 2.59338) rotate(78.6806) scale(15.9485 65.7404)">
<stop stop-color="#3771C8"/>
<stop offset="0.128" stop-color="#3771C8"/>
<stop offset="1" stop-color="#6600FF" stop-opacity="0"/>
</radialGradient>
<radialGradient id="paint5_radial_34_190" cx="0" cy="0" r="1" gradientUnits="userSpaceOnUse" gradientTransform="translate(-6.03019 2.59338) rotate(78.6806) scale(15.9485 65.7404)">
<stop stop-color="#3771C8"/>
<stop offset="0.128" stop-color="#3771C8"/>
<stop offset="1" stop-color="#6600FF" stop-opacity="0"/>
</radialGradient>
</defs>
</svg>
