<svg width="70" height="70" viewBox="0 0 70 70" fill="none" xmlns="http://www.w3.org/2000/svg">
<path d="M24.0625 30.625C24.0625 30.0448 24.293 29.4884 24.7032 29.0782C25.1134 28.668 25.6698 28.4375 26.25 28.4375H48.125C48.7052 28.4375 49.2616 28.668 49.6718 29.0782C50.082 29.4884 50.3125 30.0448 50.3125 30.625C50.3125 31.2052 50.082 31.7616 49.6718 32.1718C49.2616 32.582 48.7052 32.8125 48.125 32.8125H26.25C25.6698 32.8125 25.1134 32.582 24.7032 32.1718C24.293 31.7616 24.0625 31.2052 24.0625 30.625ZM26.25 41.5625H48.125C48.7052 41.5625 49.2616 41.332 49.6718 40.9218C50.082 40.5116 50.3125 39.9552 50.3125 39.375C50.3125 38.7948 50.082 38.2384 49.6718 37.8282C49.2616 37.418 48.7052 37.1875 48.125 37.1875H26.25C25.6698 37.1875 25.1134 37.418 24.7032 37.8282C24.293 38.2384 24.0625 38.7948 24.0625 39.375C24.0625 39.9552 24.293 40.5116 24.7032 40.9218C25.1134 41.332 25.6698 41.5625 26.25 41.5625ZM63.4375 17.5V50.3125C63.4303 52.0508 62.7366 53.7158 61.5074 54.9449C60.2783 56.1741 58.6133 56.8678 56.875 56.875H8.75C7.01424 56.875 5.34918 56.1874 4.11925 54.9626C2.88933 53.7378 2.19473 52.0756 2.1875 50.3398V24.0625C2.1875 23.4823 2.41797 22.9259 2.8282 22.5157C3.23844 22.1055 3.79484 21.875 4.375 21.875C4.95516 21.875 5.51156 22.1055 5.9218 22.5157C6.33203 22.9259 6.5625 23.4823 6.5625 24.0625V50.3125C6.5625 50.8927 6.79297 51.4491 7.2032 51.8593C7.61344 52.2695 8.16984 52.5 8.75 52.5C9.33016 52.5 9.88656 52.2695 10.2968 51.8593C10.707 51.4491 10.9375 50.8927 10.9375 50.3125V17.5C10.9375 16.3397 11.3984 15.2269 12.2189 14.4064C13.0394 13.5859 14.1522 13.125 15.3125 13.125H59.0625C60.2228 13.125 61.3356 13.5859 62.1561 14.4064C62.9766 15.2269 63.4375 16.3397 63.4375 17.5ZM59.0625 17.5H15.3125V50.3125C15.3123 51.0583 15.1827 51.7984 14.9297 52.5H56.875C57.4552 52.5 58.0116 52.2695 58.4218 51.8593C58.832 51.4491 59.0625 50.8927 59.0625 50.3125V17.5Z" fill="url(#paint0_linear_53_217)"/>
<defs>
<linearGradient id="paint0_linear_53_217" x1="2.1875" y1="35" x2="63.4375" y2="35" gradientUnits="userSpaceOnUse">
<stop stop-color="#005C97"/>
<stop offset="1" stop-color="#363795"/>
</linearGradient>
</defs>
</svg>
