<svg width="70" height="70" viewBox="0 0 70 70" fill="none" xmlns="http://www.w3.org/2000/svg">
<path d="M33.5417 55.4167H36.4583V50.0208L46.6667 39.8125V26.25H23.3333V39.8125L33.5417 50.0208V55.4167ZM27.7083 52.5L19.1771 43.9688C18.6424 43.434 18.2292 42.8147 17.9375 42.1108C17.6458 41.405 17.5 40.6632 17.5 39.8854V26.25C17.5 24.6458 18.0717 23.2721 19.215 22.1287C20.3564 20.9874 21.7292 20.4167 23.3333 20.4167H26.25L23.3333 23.3333V11.6667C23.3333 10.8403 23.6133 10.1471 24.1733 9.58708C24.7314 9.02903 25.4236 8.75 26.25 8.75C27.0764 8.75 27.7696 9.02903 28.3296 9.58708C28.8876 10.1471 29.1667 10.8403 29.1667 11.6667V20.4167H40.8333V11.6667C40.8333 10.8403 41.1133 10.1471 41.6733 9.58708C42.2314 9.02903 42.9236 8.75 43.75 8.75C44.5764 8.75 45.2696 9.02903 45.8296 9.58708C46.3876 10.1471 46.6667 10.8403 46.6667 11.6667V23.3333L43.75 20.4167H46.6667C48.2708 20.4167 49.6446 20.9874 50.7879 22.1287C51.9293 23.2721 52.5 24.6458 52.5 26.25V39.8854C52.5 40.6632 52.3542 41.405 52.0625 42.1108C51.7708 42.8147 51.3576 43.434 50.8229 43.9688L42.2917 52.5V58.3333C42.2917 59.1597 42.0126 59.8519 41.4546 60.41C40.8946 60.97 40.2014 61.25 39.375 61.25H30.625C29.7986 61.25 29.1064 60.97 28.5483 60.41C27.9883 59.8519 27.7083 59.1597 27.7083 58.3333V52.5Z" fill="url(#paint0_linear_53_215)"/>
<defs>
<linearGradient id="paint0_linear_53_215" x1="17.5" y1="35" x2="52.5" y2="35" gradientUnits="userSpaceOnUse">
<stop stop-color="#005C97"/>
<stop offset="1" stop-color="#363795"/>
</linearGradient>
</defs>
</svg>
