<svg width="24" height="24" viewBox="0 0 24 24" fill="none" xmlns="http://www.w3.org/2000/svg">
<g clip-path="url(#clip0_77_267)">
<path fill-rule="evenodd" clip-rule="evenodd" d="M9.92392 2.00012C4.44294 2.00012 0 6.47712 0 12.0001C0 17.5231 4.44294 22.0001 9.92392 22.0001C15.4049 22.0001 19.8478 17.5231 19.8478 12.0001C19.8478 6.47712 15.4049 2.00012 9.92392 2.00012ZM6.94675 12.0001C6.94681 11.3908 7.13101 10.7959 7.47484 10.2947C7.81867 9.79341 8.30582 9.40954 8.87148 9.19414C9.43714 8.97873 10.0545 8.94201 10.6414 9.08884C11.2282 9.23568 11.7568 9.55912 12.1568 10.0161C12.331 10.215 12.5766 10.3361 12.8393 10.3526C13.1021 10.3691 13.3607 10.2797 13.5581 10.1041C13.7555 9.92855 13.8756 9.68115 13.8919 9.41635C13.9083 9.15155 13.8196 8.89103 13.6454 8.69212C12.9787 7.9305 12.0977 7.39151 11.1195 7.14686C10.1413 6.90222 9.11242 6.96353 8.16968 7.32262C7.22695 7.68172 6.41508 8.32158 5.84211 9.15707C5.26914 9.99256 4.96223 10.9841 4.96223 11.9996C4.96223 13.0152 5.26914 14.0067 5.84211 14.8422C6.41508 15.6777 7.22695 16.3175 8.16968 16.6766C9.11242 17.0357 10.1413 17.097 11.1195 16.8524C12.0977 16.6077 12.9787 16.0687 13.6454 15.3071C13.7316 15.2086 13.7977 15.094 13.84 14.9698C13.8822 14.8455 13.8997 14.7141 13.8916 14.583C13.8834 14.452 13.8497 14.3238 13.7924 14.2059C13.7351 14.0879 13.6553 13.9825 13.5576 13.8956C13.4598 13.8088 13.3461 13.7421 13.2228 13.6996C13.0995 13.657 12.9691 13.6393 12.839 13.6475C12.7089 13.6558 12.5817 13.6897 12.4647 13.7475C12.3476 13.8052 12.243 13.8856 12.1568 13.9841C11.7568 14.4411 11.2282 14.7646 10.6414 14.9114C10.0545 15.0582 9.43714 15.0215 8.87148 14.8061C8.30582 14.5907 7.81867 14.2068 7.47484 13.7056C7.13101 13.2043 6.94681 12.6095 6.94675 12.0001Z" fill="white"/>
</g>
<defs>
<clipPath id="clip0_77_267">
<rect width="23.8174" height="24" fill="white"/>
</clipPath>
</defs>
</svg>
