<svg width="16" height="17" viewBox="0 0 16 17" fill="none" xmlns="http://www.w3.org/2000/svg">
<path d="M2.66683 13.8334C2.30016 13.8334 1.98638 13.703 1.7255 13.4421C1.46416 13.1807 1.3335 12.8667 1.3335 12.5001V4.50008C1.3335 4.13341 1.46416 3.81964 1.7255 3.55875C1.98638 3.29741 2.30016 3.16675 2.66683 3.16675H13.3335C13.7002 3.16675 14.0142 3.29741 14.2755 3.55875C14.5364 3.81964 14.6668 4.13341 14.6668 4.50008V12.5001C14.6668 12.8667 14.5364 13.1807 14.2755 13.4421C14.0142 13.703 13.7002 13.8334 13.3335 13.8334H2.66683ZM13.3335 5.83341L8.35016 8.95008C8.29461 8.98342 8.23616 9.0083 8.17483 9.02475C8.11394 9.04164 8.05572 9.05008 8.00016 9.05008C7.94461 9.05008 7.88638 9.04164 7.8255 9.02475C7.76416 9.0083 7.70572 8.98342 7.65016 8.95008L2.66683 5.83341V12.5001H13.3335V5.83341ZM8.00016 7.83342L13.3335 4.50008H2.66683L8.00016 7.83342ZM2.66683 6.00008V5.01675V5.03341V5.02475V6.00008Z" fill="white"/>
</svg>
