<svg width="70" height="70" viewBox="0 0 70 70" fill="none" xmlns="http://www.w3.org/2000/svg">
<path fill-rule="evenodd" clip-rule="evenodd" d="M52.5 23.3333C52.5 22.173 52.9609 21.0602 53.7814 20.2397C54.6019 19.4192 55.7147 18.9583 56.875 18.9583C58.0353 18.9583 59.1481 19.4192 59.9686 20.2397C60.7891 21.0602 61.25 22.173 61.25 23.3333V52.9419L56.875 59.5044L52.5 52.9419V23.3333ZM56.875 21.875C56.4882 21.875 56.1173 22.0286 55.8438 22.3021C55.5703 22.5756 55.4167 22.9465 55.4167 23.3333V52.0581L56.875 54.2456L58.3333 52.0581V23.3333C58.3333 22.9465 58.1797 22.5756 57.9062 22.3021C57.6327 22.0286 57.2618 21.875 56.875 21.875Z" fill="url(#paint0_linear_53_219)"/>
<path fill-rule="evenodd" clip-rule="evenodd" d="M59.7917 29.1667H53.9583V26.25H59.7917V29.1667ZM14.5833 11.6667C13.8098 11.6667 13.0679 11.974 12.5209 12.5209C11.974 13.0679 11.6667 13.8098 11.6667 14.5833V55.4167C11.6667 56.1902 11.974 56.9321 12.5209 57.4791C13.0679 58.026 13.8098 58.3333 14.5833 58.3333H43.75C44.5235 58.3333 45.2654 58.026 45.8124 57.4791C46.3594 56.9321 46.6667 56.1902 46.6667 55.4167V14.5833C46.6667 13.8098 46.3594 13.0679 45.8124 12.5209C45.2654 11.974 44.5235 11.6667 43.75 11.6667H14.5833ZM8.75 14.5833C8.75 13.0362 9.36458 11.5525 10.4585 10.4585C11.5525 9.36458 13.0362 8.75 14.5833 8.75H43.75C45.2971 8.75 46.7808 9.36458 47.8748 10.4585C48.9688 11.5525 49.5833 13.0362 49.5833 14.5833V55.4167C49.5833 56.9638 48.9688 58.4475 47.8748 59.5415C46.7808 60.6354 45.2971 61.25 43.75 61.25H14.5833C13.0362 61.25 11.5525 60.6354 10.4585 59.5415C9.36458 58.4475 8.75 56.9638 8.75 55.4167V14.5833Z" fill="url(#paint1_linear_53_219)"/>
<path fill-rule="evenodd" clip-rule="evenodd" d="M29.1667 21.875C29.1667 21.4882 29.3203 21.1173 29.5938 20.8438C29.8673 20.5703 30.2382 20.4167 30.625 20.4167H42.2917C42.6785 20.4167 43.0494 20.5703 43.3229 20.8438C43.5964 21.1173 43.75 21.4882 43.75 21.875C43.75 22.2618 43.5964 22.6327 43.3229 22.9062C43.0494 23.1797 42.6785 23.3334 42.2917 23.3334H30.625C30.2382 23.3334 29.8673 23.1797 29.5938 22.9062C29.3203 22.6327 29.1667 22.2618 29.1667 21.875ZM29.1667 27.7084C29.1667 27.3216 29.3203 26.9506 29.5938 26.6772C29.8673 26.4037 30.2382 26.25 30.625 26.25H42.2917C42.6785 26.25 43.0494 26.4037 43.3229 26.6772C43.5964 26.9506 43.75 27.3216 43.75 27.7084C43.75 28.0951 43.5964 28.4661 43.3229 28.7396C43.0494 29.013 42.6785 29.1667 42.2917 29.1667H30.625C30.2382 29.1667 29.8673 29.013 29.5938 28.7396C29.3203 28.4661 29.1667 28.0951 29.1667 27.7084ZM29.1667 40.8334C29.1667 40.4466 29.3203 40.0756 29.5938 39.8022C29.8673 39.5287 30.2382 39.375 30.625 39.375H42.2917C42.6785 39.375 43.0494 39.5287 43.3229 39.8022C43.5964 40.0756 43.75 40.4466 43.75 40.8334C43.75 41.2201 43.5964 41.5911 43.3229 41.8646C43.0494 42.138 42.6785 42.2917 42.2917 42.2917H30.625C30.2382 42.2917 29.8673 42.138 29.5938 41.8646C29.3203 41.5911 29.1667 41.2201 29.1667 40.8334ZM29.1667 46.6667C29.1667 46.2799 29.3203 45.909 29.5938 45.6355C29.8673 45.362 30.2382 45.2084 30.625 45.2084H42.2917C42.6785 45.2084 43.0494 45.362 43.3229 45.6355C43.5964 45.909 43.75 46.2799 43.75 46.6667C43.75 47.0535 43.5964 47.4244 43.3229 47.6979C43.0494 47.9714 42.6785 48.125 42.2917 48.125H30.625C30.2382 48.125 29.8673 47.9714 29.5938 47.6979C29.3203 47.4244 29.1667 47.0535 29.1667 46.6667ZM17.5 40.8334V45.2084H21.875V40.8334H17.5ZM16.0417 37.9167H23.3334C23.7201 37.9167 24.0911 38.0703 24.3645 38.3438C24.638 38.6173 24.7917 38.9882 24.7917 39.375V46.6667C24.7917 47.0535 24.638 47.4244 24.3645 47.6979C24.0911 47.9714 23.7201 48.125 23.3334 48.125H16.0417C15.6549 48.125 15.284 47.9714 15.0105 47.6979C14.737 47.4244 14.5834 47.0535 14.5834 46.6667V39.375C14.5834 38.9882 14.737 38.6173 15.0105 38.3438C15.284 38.0703 15.6549 37.9167 16.0417 37.9167ZM25.8227 20.844C26.0961 21.1175 26.2497 21.4883 26.2497 21.875C26.2497 22.2617 26.0961 22.6326 25.8227 22.9061L18.9584 29.7704L15.0106 25.8227C14.8714 25.6882 14.7603 25.5273 14.6838 25.3494C14.6074 25.1714 14.5672 24.9801 14.5655 24.7864C14.5638 24.5928 14.6007 24.4008 14.674 24.2215C14.7474 24.0423 14.8556 23.8795 14.9926 23.7426C15.1295 23.6056 15.2923 23.4974 15.4715 23.424C15.6508 23.3507 15.8428 23.3138 16.0364 23.3155C16.2301 23.3172 16.4214 23.3574 16.5994 23.4338C16.7773 23.5103 16.9382 23.6214 17.0727 23.7606L18.9584 25.6463L23.7606 20.844C24.0341 20.5706 24.405 20.417 24.7917 20.417C25.1784 20.417 25.5492 20.5706 25.8227 20.844Z" fill="url(#paint2_linear_53_219)"/>
<defs>
<linearGradient id="paint0_linear_53_219" x1="52.5" y1="39.2313" x2="61.25" y2="39.2313" gradientUnits="userSpaceOnUse">
<stop stop-color="#005C97"/>
<stop offset="1" stop-color="#363795"/>
</linearGradient>
<linearGradient id="paint1_linear_53_219" x1="8.75" y1="35" x2="59.7917" y2="35" gradientUnits="userSpaceOnUse">
<stop stop-color="#005C97"/>
<stop offset="1" stop-color="#363795"/>
</linearGradient>
<linearGradient id="paint2_linear_53_219" x1="14.5654" y1="34.2709" x2="43.75" y2="34.2709" gradientUnits="userSpaceOnUse">
<stop stop-color="#005C97"/>
<stop offset="1" stop-color="#363795"/>
</linearGradient>
</defs>
</svg>
