<svg width="198" height="123" viewBox="0 0 198 123" fill="none" xmlns="http://www.w3.org/2000/svg">
<path d="M33.5974 121.868C41.9111 116.319 43.941 105.82 43.747 96.354C43.7171 94.7718 43.9201 93.1091 43.1798 91.712C42.4395 90.3149 40.6782 89.3418 39.2364 89.9866C38.0423 90.5209 37.499 91.8762 36.8154 92.9956C35.8993 94.4915 34.5802 95.6989 33.0093 96.4793C31.9824 96.9838 30.7167 97.2853 29.7256 96.7211C28.3584 95.951 28.233 94.0643 28.2599 92.4941C28.3236 89.5667 28.3873 86.6392 28.4509 83.7117C28.4838 82.1415 28.5166 80.5355 28.042 79.0369C27.5673 77.5384 26.4986 76.1383 24.9911 75.6965C23.4836 75.2547 21.597 76.0906 21.2537 77.622C21.1104 78.2608 21.2328 78.9265 21.179 79.5773C21.1253 80.228 20.8059 80.9475 20.173 81.1206C19.5402 81.2937 18.9073 80.8221 18.4387 80.3713C16.8207 78.7623 15.752 76.7025 14.7251 74.6547C13.6982 72.6069 12.737 70.5113 11.2742 68.759C9.81148 67.0067 7.7726 65.5977 5.4979 65.4484C3.22319 65.2992 0.769378 66.6425 0.157416 68.8396C-0.454546 71.0367 0.820125 73.3173 2.21719 75.1264C4.29809 77.8195 6.75861 80.1966 9.52192 82.1833C10.0175 82.5445 10.5548 82.9326 10.7399 83.5147C11.0682 84.5685 10.0473 85.6043 8.99354 85.9237C7.79947 86.2939 6.51585 86.1536 5.27103 86.279C4.02621 86.4044 2.67392 86.9268 2.18734 88.0701C1.5097 89.6672 2.84408 91.3687 4.16651 92.4911C6.82009 94.7436 9.84001 96.5246 13.0952 97.757C14.2594 98.1988 15.4833 98.5869 16.4177 99.4138C17.352 100.241 17.9103 101.662 17.3132 102.757C16.7162 103.853 15.2535 104.19 14.0295 103.951C12.8056 103.712 11.719 103.035 10.5548 102.581C8.38158 101.733 5.55462 101.841 4.12472 103.686C3.18439 104.898 3.07692 106.605 3.52768 108.074C3.97844 109.542 4.89489 110.814 5.88 111.99C9.3249 116.104 13.7609 119.438 18.8088 121.244C23.8567 123.05 28.5494 123.597 33.6213 121.841" fill="#EBEBEB"/>
<path d="M31.1913 115.898C29.854 111.101 27.9464 105.966 25.7643 100.673C25.215 99.3481 24.6717 98.0406 24.1344 96.751C23.597 95.4643 23.0627 94.1897 22.4627 92.9747C21.3065 90.6416 20.0219 88.3743 18.6148 86.1834C17.2834 84.0938 15.943 82.1355 14.6773 80.3235C13.4116 78.5115 12.1877 76.8428 11.0145 75.3711C9.17057 73.0398 7.14529 70.8578 4.95757 68.8455C4.18441 68.1321 3.56647 67.5977 3.14556 67.2425L2.65599 66.8395C2.54554 66.7499 2.48584 66.7081 2.48584 66.7081C2.48584 66.7081 2.5336 66.7619 2.63808 66.8574L3.10676 67.2783C3.51871 67.6455 4.12769 68.1918 4.89786 68.9142C7.0571 70.9488 9.05893 73.1442 10.8861 75.4816C12.0504 76.9562 13.2564 78.622 14.5191 80.434C15.7818 82.246 17.1072 84.1983 18.4327 86.2969C19.831 88.4836 21.1076 90.7458 22.2567 93.0732C22.8537 94.2822 23.3821 95.5479 23.9194 96.8375L25.5463 100.76C27.7285 106.062 29.636 111.184 30.9824 115.967" fill="#E0E0E0"/>
<path d="M22.4031 92.9389C22.4766 92.7216 22.5286 92.4977 22.5583 92.2702C22.6479 91.8374 22.7523 91.2075 22.8747 90.4254C23.1195 88.8641 23.3852 86.6969 23.6748 84.3058C23.9643 81.9147 24.2718 79.7564 24.5435 78.2071C24.6808 77.4279 24.8002 76.801 24.8867 76.3682C24.9439 76.1461 24.9808 75.9193 24.9972 75.6906C24.9111 75.9041 24.8442 76.1249 24.7972 76.3503C24.6808 76.7742 24.5375 77.4011 24.3793 78.1742C24.0599 79.7235 23.7285 81.8848 23.4389 84.2789C23.1494 86.673 22.9016 88.7925 22.7105 90.4015C22.612 91.1508 22.5314 91.7747 22.4688 92.2553C22.4277 92.4809 22.4057 92.7096 22.4031 92.9389Z" fill="#E0E0E0"/>
<path d="M1.99927 88.8611C2.06692 88.8827 2.13725 88.8948 2.20823 88.897L2.80527 88.9597C3.33066 89.0074 4.08889 89.0791 5.02325 89.1985C6.89795 89.4224 9.47117 89.8224 12.2922 90.3925C15.1132 90.9627 17.6416 91.5866 19.4566 92.106C20.3521 92.3538 21.0984 92.5777 21.6029 92.727L22.2 92.9001C22.2668 92.9255 22.3374 92.9396 22.4089 92.9419C22.349 92.9046 22.2849 92.8745 22.2179 92.8523L21.6477 92.6404C21.1492 92.4613 20.4238 92.2135 19.5193 91.9448C17.7282 91.3926 15.1818 90.7358 12.3549 90.1537C9.52789 89.5716 6.93377 89.2134 5.04415 89.0313C4.10382 88.9358 3.33961 88.888 2.81124 88.8671L2.2142 88.8492C2.14238 88.8418 2.06982 88.8458 1.99927 88.8611Z" fill="#E0E0E0"/>
<path d="M30.9705 115.519C31.0237 115.441 31.0696 115.358 31.1078 115.271L31.466 114.543C31.7645 113.91 32.1974 112.984 32.7048 111.835C33.7228 109.534 35.0333 106.312 36.4333 102.739C37.8334 99.166 39.12 95.939 40.0932 93.6255C40.5797 92.4911 40.9887 91.5627 41.2634 90.8881C41.3917 90.5896 41.4962 90.3358 41.5798 90.1418C41.6199 90.0564 41.6519 89.9675 41.6753 89.8761C41.6183 89.9514 41.5712 90.0337 41.535 90.1209L41.1798 90.8493C40.8813 91.4821 40.4484 92.4075 39.9409 93.5598C38.92 95.8584 37.6125 99.0794 36.2124 102.653C34.8124 106.226 33.5258 109.453 32.5496 111.766L31.3824 114.507C31.2511 114.805 31.1466 115.056 31.066 115.25C31.022 115.335 30.9899 115.425 30.9705 115.519Z" fill="#E0E0E0"/>
<path d="M3.90967 106.462C3.99532 106.507 4.08535 106.543 4.17833 106.569L4.96642 106.838L7.86801 107.805C10.3159 108.623 13.6831 109.796 17.3997 111.089C21.1162 112.381 24.4955 113.543 26.9523 114.322C28.1822 114.713 29.1822 115.017 29.8747 115.217L30.6778 115.444C30.7701 115.474 30.8651 115.495 30.9614 115.507C30.875 115.46 30.7839 115.423 30.6897 115.396L29.9046 115.128L27.003 114.163C24.5552 113.343 21.1879 112.169 17.4683 110.865C13.7488 109.56 10.3726 108.411 7.91578 107.632C6.68588 107.244 5.68585 106.936 4.9903 106.736L4.19027 106.509C4.09871 106.484 4.00464 106.468 3.90967 106.462Z" fill="#E0E0E0"/>
<path d="M161.502 61.0328L151.826 85.6351L188.324 99.9899L198 75.3876L161.502 61.0328Z" fill="#EBEBEB"/>
<path d="M197.991 75.7174C197.841 75.7961 197.684 75.861 197.522 75.9114L196.155 76.401L191.104 78.1443L174.357 83.7893L174.22 83.8341L174.148 83.7087L173.972 83.4102C170.507 77.3533 167.372 71.8725 165.082 67.8634C163.972 65.8932 163.07 64.2812 162.423 63.1319C162.124 62.5945 161.894 62.1647 161.715 61.8363C161.627 61.6885 161.551 61.5337 161.488 61.3736C161.602 61.5056 161.702 61.6486 161.787 61.8005C161.978 62.1199 162.235 62.5378 162.551 63.0632L165.309 67.738L174.289 83.234L174.465 83.5326L174.256 83.452L191.021 77.9085L196.095 76.2696L197.484 75.8428C197.648 75.785 197.818 75.743 197.991 75.7174Z" fill="#E0E0E0"/>
<path d="M151.816 85.9655C151.769 85.8789 155.84 83.5774 160.906 80.8459C165.972 78.1145 170.121 75.9502 170.16 76.0368C170.199 76.1234 166.136 78.425 161.067 81.1594C155.999 83.8938 151.861 86.0461 151.816 85.9655Z" fill="#E0E0E0"/>
<path d="M182.423 80.4997C182.516 80.4728 183.916 84.8879 185.54 90.3508C187.164 95.8137 188.409 100.282 188.316 100.309C188.224 100.336 186.824 95.9241 185.2 90.4582C183.576 84.9924 182.328 80.5295 182.423 80.4997Z" fill="#E0E0E0"/>
<path d="M188.638 29.211L167.128 38.5771L173.441 53.0748L194.951 43.7087L188.638 29.211Z" fill="#EBEBEB"/>
<path d="M188.779 29.3278C188.749 29.4247 188.71 29.5186 188.662 29.6084L188.292 30.3935L186.895 33.2652L182.197 42.7611L182.158 42.8387L182.074 42.8148L181.871 42.7611L171.534 39.946L168.408 39.0684L167.56 38.8206C167.458 38.7957 167.358 38.7618 167.262 38.7191C167.363 38.7279 167.463 38.7479 167.56 38.7788L168.417 38.9878L171.572 39.7759L181.925 42.5312L182.131 42.5849L182.009 42.6417C183.862 38.955 185.537 35.6295 186.761 33.1995C187.358 32.0055 187.865 31.0472 188.218 30.3547L188.624 29.5875C188.668 29.4965 188.72 29.4096 188.779 29.3278Z" fill="#E0E0E0"/>
<path d="M173.584 53.2091C173.527 53.2091 174.28 50.5016 175.262 47.2C176.244 43.8984 177.092 41.2296 177.145 41.2475C177.199 41.2654 176.453 43.9551 175.468 47.2597C174.483 50.5643 173.641 53.2091 173.584 53.2091Z" fill="#E0E0E0"/>
<path d="M184.218 37.9459C184.244 37.8952 186.704 39.1728 189.707 40.7968C192.71 42.4207 195.122 43.7819 195.081 43.8357C195.039 43.8894 192.597 42.6118 189.594 40.9848C186.591 39.3579 184.191 37.9847 184.218 37.9459Z" fill="#E0E0E0"/>
<path d="M194.269 121.997C194.269 122.038 151.112 122.074 97.8892 122.074C44.6665 122.074 1.4978 122.038 1.4978 121.997C1.4978 121.955 44.6456 121.919 97.8892 121.919C151.133 121.919 194.269 121.952 194.269 121.997Z" fill="#263238"/>
<path d="M159.608 33.4443H36.1858C33.7837 33.4443 31.8364 35.3916 31.8364 37.7937V116.465C31.8364 118.867 33.7837 120.814 36.1858 120.814H159.608C162.01 120.814 163.957 118.867 163.957 116.465V37.7937C163.957 35.3916 162.01 33.4443 159.608 33.4443Z" fill="#263238"/>
<path d="M26.3138 114.352H169.453V116.683C169.453 118.092 168.893 119.444 167.897 120.44C166.9 121.437 165.549 121.997 164.139 121.997H31.6124C30.2032 121.997 28.8516 121.437 27.8552 120.44C26.8587 119.444 26.2988 118.092 26.2988 116.683V114.352H26.3138Z" fill="#263238"/>
<path d="M160.041 36.913H35.3828V110.695H160.041V36.913Z" fill="#455A64"/>
<path d="M84.8743 114.352L86.6504 117.176H111.645L113.293 114.352H84.8743Z" fill="#455A64"/>
<path d="M156.754 39.4116H38.9261C38.387 39.4116 37.95 39.8487 37.95 40.3878V109.483C37.95 110.022 38.387 110.459 38.9261 110.459H156.754C157.293 110.459 157.73 110.022 157.73 109.483V40.3878C157.73 39.8487 157.293 39.4116 156.754 39.4116Z" fill="#EBEBEB"/>
<path d="M157.73 44.6178H37.95V110.462H157.73V44.6178Z" fill="#EBEBEB"/>
<path d="M47.7741 42.164C47.7747 42.3538 47.719 42.5395 47.6139 42.6975C47.5088 42.8555 47.3592 42.9788 47.184 43.0517C47.0088 43.1246 46.8159 43.1438 46.6297 43.107C46.4435 43.0701 46.2725 42.9788 46.1383 42.8446C46.0041 42.7104 45.9128 42.5394 45.8759 42.3532C45.8391 42.167 45.8583 41.9741 45.9312 41.7989C46.0041 41.6237 46.1274 41.4741 46.2854 41.369C46.4434 41.2639 46.6291 41.2082 46.8189 41.2087C47.072 41.2095 47.3145 41.3104 47.4935 41.4894C47.6725 41.6684 47.7734 41.9109 47.7741 42.164Z" fill="#455A64"/>
<path d="M41.977 42.164C41.9776 42.3538 41.9218 42.5395 41.8168 42.6975C41.7117 42.8555 41.5621 42.9788 41.3869 43.0517C41.2117 43.1246 41.0187 43.1438 40.8326 43.107C40.6464 43.0701 40.4754 42.9788 40.3412 42.8446C40.207 42.7104 40.1157 42.5394 40.0788 42.3532C40.0419 42.167 40.0612 41.9741 40.1341 41.7989C40.207 41.6237 40.3302 41.4741 40.4883 41.369C40.6463 41.2639 40.832 41.2082 41.0218 41.2087C41.2749 41.2095 41.5174 41.3104 41.6964 41.4894C41.8753 41.6684 41.9762 41.9109 41.977 42.164Z" fill="#455A64"/>
<path d="M44.747 42.164C44.7476 42.3538 44.6919 42.5395 44.5868 42.6975C44.4817 42.8555 44.3321 42.9788 44.1569 43.0517C43.9817 43.1246 43.7888 43.1438 43.6026 43.107C43.4164 43.0701 43.2454 42.9788 43.1112 42.8446C42.977 42.7104 42.8857 42.5394 42.8488 42.3532C42.812 42.167 42.8312 41.9741 42.9041 41.7989C42.977 41.6237 43.1003 41.4741 43.2583 41.369C43.4163 41.2639 43.602 41.2082 43.7918 41.2087C44.0449 41.2095 44.2874 41.3104 44.4664 41.4894C44.6454 41.6684 44.7463 41.9109 44.747 42.164Z" fill="#455A64"/>
<path d="M162.823 114.352C162.823 114.399 133.497 114.435 97.3342 114.435C61.1718 114.435 31.8364 114.399 31.8364 114.352C31.8364 114.304 61.1568 114.265 97.3342 114.265C133.512 114.265 162.823 114.304 162.823 114.352Z" fill="#455A64"/>
<path d="M31.8091 115.301C31.7736 115.284 31.7396 115.264 31.7076 115.241L31.4091 115.047L30.9315 114.722C30.7434 114.59 30.5195 114.447 30.2867 114.253L29.4896 113.626C29.1911 113.39 28.8926 113.104 28.5762 112.811C27.828 112.115 27.1298 111.367 26.4865 110.572C24.7425 108.376 23.4106 105.882 22.5551 103.211C21.4424 99.6653 21.0218 95.9388 21.3162 92.2344C21.4699 90.0835 21.8429 87.9539 22.4297 85.8789C23.0524 83.6201 23.9804 81.4568 25.188 79.4488C25.5014 78.9294 25.8537 78.4279 26.2209 77.9294L27.3911 76.4786C27.806 76.0129 28.2388 75.5532 28.6687 75.0845C29.0986 74.6158 29.5822 74.189 30.0419 73.7412C32.0013 71.9532 34.1117 70.3382 36.3496 68.9142C40.9229 65.9558 46.0902 63.508 51.4098 60.9587C56.7145 58.3616 62.3057 55.8689 68.0372 53.3494C90.9903 43.2954 111.997 34.7339 127.299 28.7874C134.947 25.8022 141.189 23.5245 145.509 21.9633C147.67 21.1931 149.359 20.6199 150.5 20.2259L151.801 19.7811L152.136 19.6736C152.172 19.6595 152.21 19.6485 152.249 19.6408L152.142 19.6886L151.813 19.8139L150.521 20.2856L145.55 22.0767C141.246 23.6738 135.019 25.9783 127.383 28.9904C112.116 34.9995 91.1246 43.5969 68.1746 53.645C62.443 56.1674 56.8637 58.6511 51.5591 61.2452C46.2335 63.7916 41.0751 66.2305 36.5197 69.1679C34.2964 70.5764 32.199 72.1744 30.2509 73.9442C29.7941 74.392 29.3225 74.8188 28.8866 75.2726C28.4508 75.7263 28.0299 76.192 27.6149 76.6547L26.4537 78.0906C26.0895 78.5802 25.7403 79.0727 25.4328 79.5832C24.2318 81.5686 23.3078 83.7089 22.6864 85.9446C22.0958 88.0031 21.7177 90.1167 21.558 92.2523C21.2584 95.9311 21.6637 99.6332 22.7521 103.16C23.5832 105.824 24.8843 108.319 26.594 110.525C27.2264 111.318 27.9116 112.068 28.6448 112.769C28.9702 113.068 29.2598 113.366 29.5404 113.593L30.3225 114.232C30.5524 114.429 30.7733 114.575 30.9613 114.71L31.427 115.047L31.7106 115.253C31.7449 115.266 31.7779 115.282 31.8091 115.301Z" fill="#263238"/>
<path d="M147.243 9.8226L152.772 14.4048L152.261 19.6528L156.79 17.1363L161.614 20.5633L179.591 9.0166L147.243 9.8226Z" fill="url(#paint0_linear_96_181)"/>
<g opacity="0.5">
<path d="M152.771 14.4048L179.104 9.0285L155.452 16.187L152.261 19.6528L152.771 14.4048Z" fill="black"/>
</g>
<g opacity="0.8">
<path d="M155.452 16.187L156.79 17.1362L152.261 19.6527L155.452 16.187Z" fill="black"/>
</g>
<path d="M72.637 78.8248L43.9202 81.5494L45.7566 100.905L74.4734 98.1803L72.637 78.8248Z" fill="white"/>
<path d="M74.4731 98.1838C74.4731 98.1838 74.4522 98.0585 74.4283 97.8256C74.4044 97.5928 74.3656 97.2286 74.3179 96.7987C74.2253 95.9032 74.091 94.5777 73.9208 92.9001C73.5865 89.5328 73.1119 84.7088 72.5298 78.8369L72.6462 78.9324L43.9347 81.6848C43.9049 81.7146 44.1586 81.4071 44.0541 81.5415V81.6131V81.6937L44.0691 81.8549L44.0989 82.1773L44.1586 82.8221C44.2004 83.252 44.2422 83.6789 44.281 84.1028C44.3606 84.9565 44.4402 85.8023 44.5198 86.6402C44.677 88.3178 44.8333 89.9676 44.9885 91.5896C45.287 94.8285 45.5855 97.942 45.8632 100.891L45.7288 100.781L66.4161 98.8824L72.3387 98.354L73.9179 98.2167L74.3298 98.1868C74.3775 98.1835 74.4254 98.1835 74.4731 98.1868C74.4307 98.1952 74.3878 98.2012 74.3447 98.2047L73.9477 98.2495L72.3954 98.4137L66.5086 99.0107L45.7676 101.038H45.6452V100.915C45.3616 97.9659 45.0661 94.8524 44.7497 91.6135C44.5945 89.9915 44.4372 88.3417 44.278 86.664C44.1964 85.8262 44.1158 84.9814 44.0362 84.1296C43.9944 83.7027 43.9556 83.2759 43.9138 82.849L43.8541 82.2042L43.8213 81.8818V81.7206V81.64V81.5982V81.5683L43.9437 81.4191L72.6611 78.7324H72.7686V78.8399C73.3029 84.7446 73.7447 89.5865 74.0522 92.9807C74.1985 94.6494 74.3149 95.9659 74.3925 96.8614C74.4283 97.2943 74.4582 97.6286 74.4761 97.8704C74.494 98.1122 74.4731 98.1838 74.4731 98.1838Z" fill="#455A64"/>
<path d="M72.6374 78.825C72.5718 78.9309 72.4969 79.0308 72.4135 79.1235L71.7389 79.9116L69.2045 82.7893L60.7086 92.2881L60.634 92.3747L60.5385 92.312L59.7743 91.8254L48.5321 84.6162L45.1439 82.4042C44.7618 82.1504 44.4603 81.9445 44.2275 81.7922C44.1207 81.7255 44.0208 81.6485 43.929 81.5624C44.0463 81.6136 44.1591 81.6745 44.2663 81.7445L45.2066 82.3146L48.6276 84.4431L59.9116 91.5866L60.6758 92.0762L60.5056 92.1L69.0612 82.652L71.6553 79.8339L72.3687 79.0787C72.4503 78.986 72.5402 78.9011 72.6374 78.825Z" fill="#455A64"/>
<path d="M133.342 50.8628L129.463 64.5913L149.833 70.3478L153.712 56.6193L133.342 50.8628Z" fill="white"/>
<path d="M149.825 70.353C149.825 70.353 149.846 70.2605 149.891 70.0963C149.935 69.9321 150.001 69.6784 150.088 69.3649C150.264 68.7171 150.52 67.7828 150.849 66.5917L153.631 56.6033L153.685 56.6988L133.311 50.9613L133.43 50.8956V50.9165V50.9464L133.415 51.0031L133.383 51.1165L133.317 51.3464L133.188 51.8031L132.932 52.6987L132.424 54.4898C132.087 55.6839 131.756 56.8511 131.43 58.0004C130.776 60.296 130.153 62.505 129.559 64.5976L129.496 64.4842L144.144 68.6634L148.323 69.8724L149.443 70.1978L149.741 70.2873L149.84 70.3202L149.747 70.2993L149.449 70.2247L148.344 69.9261L144.165 68.7679L129.439 64.6513L129.353 64.6275L129.376 64.5409C129.973 62.4513 130.588 60.2392 131.236 57.9407C131.559 56.7924 131.889 55.6222 132.227 54.4301L132.735 52.639C132.818 52.3405 132.905 52.0419 132.991 51.7434L133.12 51.2867L133.186 51.0598L133.215 50.9434L133.233 50.8867V50.8568V50.8359L133.356 50.7673L153.718 56.5406L153.795 56.5645L153.771 56.6391C152.577 60.8184 151.586 64.2543 150.9 66.6544L150.123 69.4037C150.034 69.7023 149.962 69.947 149.914 70.1172C149.867 70.2874 149.825 70.353 149.825 70.353Z" fill="#455A64"/>
<path d="M153.706 56.6242C153.634 56.6764 153.558 56.7223 153.479 56.7615L152.81 57.1198L150.315 58.4153L141.98 62.6603L141.905 62.6991L141.858 62.6304L141.467 62.0961L135.69 54.1794L133.956 51.7673L133.496 51.1196C133.438 51.0458 133.388 50.9657 133.347 50.8807C133.414 50.947 133.475 51.0189 133.529 51.0957L134.022 51.7375L135.813 54.1107L141.637 61.9946L142.031 62.5289L141.905 62.499L150.264 58.3198L152.786 57.081L153.476 56.7526C153.549 56.7029 153.626 56.66 153.706 56.6242Z" fill="#455A64"/>
<path d="M46.2873 47.591C46.2873 47.591 47.6933 46.4537 49.8695 49.8657C51.0116 51.6006 52.0368 53.4096 52.9383 55.2809C52.9383 55.2809 53.4965 55.9854 53.9652 55.445C54.4338 54.9047 55.007 53.439 55.9085 53.6062C56.81 53.7733 57.2429 54.7644 57.213 56.2749C57.1832 57.7854 57.2429 61.096 57.2489 61.3945C57.2548 61.693 57.4638 62.102 57.8459 61.7856C58.228 61.4691 60.3057 58.6422 61.5863 59.7109C62.867 60.7796 62.0938 64.9737 62.0192 65.4334C61.9445 65.8932 62.049 66.0753 62.2729 66.1678C62.4968 66.2603 63.1088 65.2424 63.7327 64.4633C64.3566 63.6841 65.2253 62.8901 65.9059 63.5677C66.5865 64.2453 67.0999 67.2902 64.6551 72.5441L63.3685 74.9054L60.6818 75.0189C54.8906 74.9024 52.3711 73.1263 52.0636 72.2128C51.7561 71.2993 52.8457 70.8695 53.8189 70.6486C54.7921 70.4277 55.9712 70.3262 55.9891 70.0844C56.007 69.8426 55.8876 69.6664 55.4398 69.5351C54.9921 69.4037 50.8845 68.2574 50.4874 66.6395C50.0904 65.0215 53.5383 64.3857 53.989 64.1827C54.4398 63.9797 54.1592 63.6125 53.8995 63.4782C53.6398 63.3438 50.6815 61.8393 49.3113 61.2064C47.9411 60.5736 47.2216 59.7795 47.4814 58.8631C47.7411 57.9466 49.2934 58.1048 49.9859 57.9198C50.6785 57.7347 50.2844 56.9257 50.2844 56.9257C48.9973 55.2966 47.8205 53.5833 46.7619 51.7972C44.6484 48.3433 46.3291 47.5701 46.3291 47.5701" fill="#FF725E"/>
<path d="M48.2427 50.6419C48.255 50.6676 48.269 50.6926 48.2845 50.7165L48.4098 50.9315L48.9024 51.7524C49.3323 52.4629 49.9592 53.4898 50.7413 54.7376C52.3025 57.269 54.4907 60.7438 56.9206 64.5707C59.3505 68.3977 61.5446 71.8725 63.1208 74.392C63.9059 75.6517 64.5417 76.6697 64.9865 77.3772L65.494 78.1891C65.5507 78.2787 65.5955 78.3503 65.6284 78.3981L65.6761 78.4697C65.6638 78.444 65.6498 78.4191 65.6343 78.3951L65.5089 78.1802L65.0164 77.3891C64.5865 76.6786 63.9567 75.6517 63.1775 74.389C61.6133 71.8606 59.4281 68.3828 56.9982 64.5528C54.5683 60.7229 52.3712 57.2541 50.795 54.7346L48.9323 51.7494C48.7143 51.4001 48.5442 51.1255 48.4248 50.9374L48.2904 50.7285C48.2606 50.6658 48.2427 50.6419 48.2427 50.6419Z" fill="#263238"/>
<path d="M55.1948 55.6838C55.1707 55.7443 55.1536 55.8075 55.1441 55.8719C55.1172 55.9943 55.0814 56.1704 55.0426 56.3913C54.962 56.8301 54.8665 57.4391 54.7739 58.1168C54.6814 58.7944 54.6067 59.3795 54.5441 59.8452C54.5172 60.0512 54.4903 60.2243 54.4724 60.3676C54.4584 60.4313 54.4524 60.4965 54.4545 60.5616C54.4796 60.5012 54.4976 60.4381 54.5082 60.3736C54.5351 60.2512 54.5679 60.075 54.6067 59.8541C54.6844 59.4153 54.7709 58.8033 54.8635 58.1287C54.956 57.454 55.0396 56.866 55.1053 56.4003C55.1351 56.1973 55.159 56.0212 55.1799 55.8779C55.1922 55.814 55.1972 55.7489 55.1948 55.6838Z" fill="#263238"/>
<path d="M54.2068 60.6333C54.2068 60.6094 52.962 60.3556 51.4186 60.0691C49.8753 59.7825 48.6155 59.5705 48.6126 59.5944C48.6096 59.6183 49.8574 59.872 51.4007 60.1586C52.944 60.4452 54.2038 60.6721 54.2068 60.6333Z" fill="#263238"/>
<path d="M58.2038 66.3439C58.1374 66.336 58.0702 66.336 58.0038 66.3439L57.4665 66.3977C57.0127 66.4395 56.3858 66.4992 55.6933 66.538C55.0007 66.5768 54.3708 66.5977 53.9171 66.6066H53.3768C53.3098 66.6056 53.2428 66.6106 53.1768 66.6216C53.2423 66.6371 53.3095 66.6441 53.3768 66.6424C53.5021 66.6424 53.6753 66.6574 53.9171 66.6604C54.3708 66.6604 55.0037 66.6604 55.7082 66.6216C56.4127 66.5827 57.0306 66.5111 57.4844 66.4514C57.7083 66.4215 57.8933 66.3917 58.0187 66.3708C58.0811 66.3679 58.1431 66.3589 58.2038 66.3439Z" fill="#263238"/>
<path d="M60.0757 62.0662C60.0409 62.1159 60.0109 62.1689 59.9862 62.2244L59.7653 62.6751C59.5862 63.0543 59.3414 63.5707 59.0757 64.1677C58.81 64.7648 58.5742 65.2842 58.407 65.6603C58.3234 65.8544 58.2577 66.0096 58.216 66.12C58.1886 66.1749 58.1686 66.2331 58.1562 66.2932C58.1938 66.2452 58.224 66.1918 58.2458 66.135C58.2995 66.0305 58.3742 65.8782 58.4667 65.6872C58.6488 65.3051 58.8936 64.7916 59.1593 64.1946C59.425 63.5976 59.6578 63.0781 59.825 62.702C59.9085 62.511 59.9742 62.3527 60.019 62.2423C60.0459 62.1865 60.065 62.1272 60.0757 62.0662Z" fill="#263238"/>
<path d="M64.2461 66.6633C64.1996 66.7262 64.1605 66.7944 64.1297 66.8663C64.0551 67.0186 63.9595 67.2126 63.8491 67.4425C63.6133 67.9261 63.2939 68.6007 62.9535 69.347C62.6132 70.0933 62.2968 70.7739 62.0759 71.2665C61.9744 71.5023 61.8878 71.6993 61.8192 71.8635C61.7853 71.9347 61.7573 72.0086 61.7356 72.0844C61.7825 72.0206 61.8216 71.9515 61.852 71.8784L62.1356 71.3053C62.3685 70.8187 62.6879 70.147 63.0312 69.3978C63.3745 68.6485 63.6879 67.9738 63.9088 67.4813C64.0133 67.2454 64.0969 67.0484 64.1655 66.8842C64.2005 66.8138 64.2275 66.7397 64.2461 66.6633Z" fill="#263238"/>
<path d="M61.7624 71.9262C61.679 71.919 61.5951 71.919 61.5117 71.9262L60.8281 71.968C60.2519 72.0038 59.4549 72.0516 58.5743 72.0784C57.6936 72.1053 56.8936 72.1113 56.3145 72.1113H55.6309C55.5474 72.1044 55.4636 72.1044 55.3801 72.1113C55.4628 72.1272 55.5467 72.1351 55.6309 72.1351C55.7921 72.1351 56.0249 72.156 56.3145 72.165C56.8936 72.1799 57.6936 72.1859 58.5773 72.165C59.4609 72.1441 60.2579 72.0814 60.834 72.0307C61.1326 72.0038 61.3535 71.9799 61.5147 71.959C61.5981 71.9562 61.6811 71.9452 61.7624 71.9262Z" fill="#263238"/>
<path d="M150.682 74.5173C150.171 74.3039 149.622 74.196 149.069 74.2001C148.515 74.2042 147.968 74.3203 147.461 74.5412C146.447 74.9891 145.55 75.6631 144.837 76.5114C143.416 78.1085 142.625 80.437 142.228 82.5385C144.583 82.837 146.885 81.3176 148.004 80.4787C149.774 79.1503 152.165 75.6786 150.691 74.5084" fill="#FF725E"/>
<path d="M137.968 83.3594C138.523 83.0844 138.995 82.6675 139.336 82.151C139.677 81.6346 139.876 81.037 139.911 80.419C139.937 79.8012 139.839 79.1845 139.624 78.6049C139.409 78.0252 139.08 77.4942 138.658 77.0428C138.276 76.6189 137.762 76.2368 137.198 76.2637C136.932 76.2931 136.679 76.3935 136.465 76.5541C136.252 76.7148 136.085 76.93 135.983 77.1771C135.782 77.6746 135.716 78.2162 135.792 78.7473C135.971 80.5683 136.478 82.2967 137.968 83.3594Z" fill="#FF725E"/>
<path d="M134.872 89.3029C134.872 89.3029 134.991 89.1925 135.171 88.9656C135.35 88.7387 135.6 88.4074 135.899 87.9864C136.699 86.8981 137.35 85.7073 137.833 84.446C138.31 83.1648 138.431 81.7783 138.183 80.4339C138.101 80.0303 137.97 79.6382 137.792 79.2667C137.744 79.1283 137.674 78.9983 137.586 78.8817C137.78 79.3971 137.932 79.9272 138.042 80.4668C138.232 81.7808 138.088 83.1215 137.624 84.3654C137.142 85.6066 136.522 86.7893 135.774 87.8909C135.445 88.3433 135.144 88.8148 134.872 89.3029Z" fill="#263238"/>
<path d="M148.56 76.9562C148.348 77.0845 148.148 77.2314 147.963 77.3951C147.589 77.6936 147.067 78.1264 146.398 78.6697C145.091 79.7593 143.306 81.2937 141.38 83.0341C139.455 84.7744 137.744 86.3984 136.529 87.5894C135.932 88.1865 135.437 88.6731 135.105 89.0164C134.925 89.1847 134.759 89.3685 134.61 89.5656C134.81 89.4201 134.998 89.2583 135.171 89.082L136.649 87.7118C137.891 86.5506 139.613 84.9535 141.541 83.2132C143.47 81.4728 145.231 79.9295 146.509 78.7981L148.022 77.4667C148.215 77.311 148.394 77.1403 148.56 76.9562Z" fill="#263238"/>
<path d="M139.323 86.5804C140.411 85.8584 141.656 85.4062 142.954 85.2614C144.252 85.1165 145.566 85.2832 146.786 85.7475C147.401 85.9893 148.073 86.4312 148.082 87.0939C148.091 87.7566 147.434 88.2223 146.819 88.467C145.524 88.9599 144.113 89.0581 142.762 88.7495C141.412 88.4408 140.183 87.739 139.231 86.7327" fill="#FF725E"/>
<path d="M145.177 86.9416C145.06 86.8571 144.93 86.7926 144.792 86.7506C144.64 86.6803 144.482 86.6214 144.321 86.5745C144.108 86.5048 143.892 86.446 143.673 86.3983C143.106 86.2662 142.526 86.1931 141.944 86.1804C140.511 86.1472 139.09 86.4465 137.792 87.0551C137.266 87.3032 136.766 87.6032 136.299 87.9506C136.119 88.0814 135.946 88.223 135.783 88.3745C135.653 88.482 135.532 88.5988 135.419 88.7238C135.231 88.9268 135.12 89.0432 135.144 89.0551C135.168 89.0671 135.595 88.6432 136.398 88.0879C136.87 87.7663 137.369 87.4876 137.89 87.2551C138.53 86.9752 139.194 86.7583 139.876 86.6073C140.563 86.4685 141.263 86.3985 141.965 86.3983C142.535 86.4011 143.104 86.455 143.664 86.5595C144.598 86.7565 145.162 86.9954 145.177 86.9416Z" fill="#263238"/>
<path d="M137.338 21.5812H61.8906V104.309H137.338V21.5812Z" fill="#FAFAFA"/>
<path d="M137.338 104.309C137.338 103.712 137.311 71.0187 137.269 21.5812L137.338 21.6499H61.8997L61.9773 21.5722C61.9773 52.0211 61.9773 80.4429 61.9773 104.3L61.9116 104.235L137.359 104.3L61.9116 104.366H61.8459V104.3C61.8459 80.4429 61.8459 52.0151 61.8459 21.5722V21.4946H61.9325H137.371H137.44V21.5603C137.365 71.0217 137.338 103.721 137.338 104.309Z" fill="#263238"/>
<path d="M116.934 87.1984H88.1035C85.7112 87.1984 83.772 89.1376 83.772 91.5299V92.4075C83.772 94.7997 85.7112 96.739 88.1035 96.739H116.934C119.327 96.739 121.266 94.7997 121.266 92.4075V91.5299C121.266 89.1376 119.327 87.1984 116.934 87.1984Z" fill="#FF725E"/>
<g opacity="0.5">
<path d="M116.934 87.1984H88.1035C85.7112 87.1984 83.772 89.1376 83.772 91.5299V92.4075C83.772 94.7997 85.7112 96.739 88.1035 96.739H116.934C119.327 96.739 121.266 94.7997 121.266 92.4075V91.5299C121.266 89.1376 119.327 87.1984 116.934 87.1984Z" fill="black"/>
</g>
<path d="M113.785 87.1984H84.9543C82.5621 87.1984 80.6228 89.1376 80.6228 91.5299V92.4075C80.6228 94.7997 82.5621 96.739 84.9543 96.739H113.785C116.177 96.739 118.117 94.7997 118.117 92.4075V91.5299C118.117 89.1376 116.177 87.1984 113.785 87.1984Z" fill="#FF725E"/>
<path d="M90.9695 92.5866L91.0978 92.2881C91.2865 92.4269 91.5144 92.5022 91.7486 92.503C92.0471 92.503 92.1874 92.3956 92.1874 92.2463C92.1874 91.8194 91.0113 92.1 91.0113 91.3657C91.0113 91.0463 91.268 90.7686 91.8083 90.7686C92.0403 90.765 92.2687 90.826 92.468 90.9448L92.3516 91.2433C92.1862 91.1448 91.9979 91.0913 91.8053 91.0881C91.5068 91.0881 91.3755 91.2045 91.3755 91.3537C91.3755 91.7746 92.5486 91.503 92.5486 92.2284C92.5486 92.5448 92.2919 92.8254 91.7486 92.8254C91.4697 92.8341 91.1957 92.7501 90.9695 92.5866Z" fill="#FAFAFA"/>
<path d="M92.8977 91.9359V90.8224H93.2649V91.9239C93.2649 92.3299 93.447 92.506 93.7664 92.506C94.0858 92.506 94.2679 92.3299 94.2679 91.9239V90.8224H94.6291V91.9388C94.6291 92.1684 94.5379 92.3886 94.3756 92.551C94.2132 92.7133 93.993 92.8046 93.7634 92.8046C93.5338 92.8046 93.3136 92.7133 93.1513 92.551C92.9889 92.3886 92.8977 92.1684 92.8977 91.9388V91.9359Z" fill="#FAFAFA"/>
<path d="M96.9006 92.2583C96.9006 92.5986 96.6349 92.7956 96.1274 92.7956H95.1423V90.8224H96.0707C96.5454 90.8224 96.7991 91.0224 96.7991 91.3358C96.8017 91.4249 96.7793 91.513 96.7345 91.59C96.6896 91.667 96.6241 91.7299 96.5454 91.7717C96.6509 91.8006 96.7435 91.8645 96.808 91.9529C96.8725 92.0413 96.9052 92.1489 96.9006 92.2583ZM95.5095 91.1209V91.6672H96.0289C96.2857 91.6672 96.4289 91.5776 96.4289 91.3955C96.4289 91.2135 96.2857 91.1209 96.0289 91.1209H95.5095ZM96.5304 92.2374C96.5304 92.0403 96.3812 91.9538 96.1036 91.9538H95.5065V92.5239H96.1036C96.3901 92.509 96.5304 92.4195 96.5304 92.2224V92.2374Z" fill="#FAFAFA"/>
<path d="M97.1277 92.5866L97.2531 92.2881C97.4428 92.427 97.6717 92.5022 97.9068 92.503C98.2053 92.503 98.3456 92.3956 98.3456 92.2463C98.3456 91.8194 97.1695 92.1 97.1695 91.3657C97.1695 91.0463 97.4232 90.7687 97.9665 90.7687C98.1976 90.765 98.4251 90.826 98.6233 90.9448L98.5068 91.2433C98.3427 91.1444 98.1552 91.0909 97.9635 91.0881C97.665 91.0881 97.5337 91.2045 97.5337 91.3537C97.5337 91.7747 98.7068 91.503 98.7068 92.2284C98.7068 92.5448 98.4501 92.8254 97.9068 92.8254C97.6278 92.8341 97.3539 92.7501 97.1277 92.5866Z" fill="#FAFAFA"/>
<path d="M98.9307 91.8075C98.9405 91.5983 99.0115 91.3966 99.1349 91.2275C99.2583 91.0584 99.4287 90.9292 99.6249 90.8561C99.8211 90.7829 100.034 90.769 100.238 90.8161C100.443 90.8632 100.628 90.9692 100.773 91.1209L100.534 91.3448C100.467 91.2704 100.386 91.2111 100.295 91.1709C100.204 91.1308 100.105 91.1106 100.005 91.1119C99.8209 91.1119 99.6439 91.1852 99.5135 91.3157C99.3831 91.4461 99.3098 91.623 99.3098 91.8075C99.3098 91.9919 99.3831 92.1689 99.5135 92.2993C99.6439 92.4298 99.8209 92.503 100.005 92.503C100.105 92.5043 100.204 92.4839 100.295 92.4432C100.387 92.4025 100.468 92.3424 100.534 92.2672L100.773 92.4941C100.628 92.6458 100.443 92.7518 100.238 92.7988C100.034 92.8459 99.8211 92.832 99.6249 92.7589C99.4287 92.6858 99.2583 92.5566 99.1349 92.3874C99.0115 92.2183 98.9405 92.0166 98.9307 91.8075Z" fill="#FAFAFA"/>
<path d="M102.42 92.7956L102.014 92.2165H101.492V92.7926H101.125V90.8224H101.94C102.459 90.8224 102.782 91.0881 102.782 91.5269C102.787 91.6622 102.75 91.7959 102.674 91.9082C102.598 92.0205 102.488 92.1056 102.361 92.1508L102.814 92.7986L102.42 92.7956ZM101.922 91.1209H101.492V91.909H101.922C102.244 91.909 102.411 91.7627 102.411 91.515C102.411 91.2672 102.244 91.1209 101.922 91.1209Z" fill="#FAFAFA"/>
<path d="M103.19 90.8224H103.555V92.7986H103.188L103.19 90.8224Z" fill="#FAFAFA"/>
<path d="M105.851 92.2583C105.851 92.5986 105.585 92.7956 105.074 92.7956H104.092V90.8224H105.018C105.492 90.8224 105.749 91.0224 105.749 91.3358C105.752 91.4253 105.729 91.5137 105.684 91.5908C105.638 91.6679 105.572 91.7306 105.492 91.7717C105.598 91.8001 105.692 91.8637 105.757 91.9521C105.822 92.0406 105.855 92.1485 105.851 92.2583ZM104.451 91.1209V91.6672H104.97C105.224 91.6672 105.37 91.5776 105.37 91.3955C105.37 91.2135 105.224 91.1209 104.97 91.1209H104.451ZM105.471 92.2374C105.471 92.0403 105.322 91.9538 105.045 91.9538H104.448V92.5239H105.045C105.346 92.509 105.48 92.4195 105.48 92.2224L105.471 92.2374Z" fill="#FAFAFA"/>
<path d="M107.734 92.4881V92.7866H106.241V90.8224H107.683V91.1209H106.609V91.6344H107.561V91.9329H106.609V92.4792L107.734 92.4881Z" fill="#FAFAFA"/>
<path d="M121.57 80.837C121.57 80.8788 111.976 80.9146 100.143 80.9146C88.3095 80.9146 78.7122 80.8788 78.7122 80.837C78.7122 80.7952 88.3035 80.7594 100.143 80.7594C111.982 80.7594 121.57 80.7922 121.57 80.837Z" fill="#263238"/>
<path d="M128.275 83.4281C128.275 83.4699 115.677 83.5058 100.143 83.5058C84.6078 83.5058 72.0073 83.4699 72.0073 83.4281C72.0073 83.3863 84.6018 83.3505 100.143 83.3505C115.683 83.3505 128.275 83.3863 128.275 83.4281Z" fill="#263238"/>
<path d="M65.4373 24.7992C65.4373 24.9255 65.3999 25.049 65.3297 25.1541C65.2595 25.2591 65.1597 25.341 65.043 25.3894C64.9262 25.4377 64.7978 25.4504 64.6739 25.4257C64.5499 25.4011 64.4361 25.3402 64.3468 25.2509C64.2574 25.1616 64.1966 25.0477 64.1719 24.9238C64.1473 24.7999 64.1599 24.6714 64.2083 24.5547C64.2567 24.438 64.3385 24.3382 64.4436 24.268C64.5486 24.1978 64.6722 24.1603 64.7985 24.1603C64.8825 24.16 64.9658 24.1762 65.0434 24.2082C65.1211 24.2401 65.1917 24.2872 65.2511 24.3466C65.3105 24.406 65.3575 24.4766 65.3895 24.5542C65.4215 24.6319 65.4377 24.7152 65.4373 24.7992Z" fill="#E0E0E0"/>
<path d="M66.9296 25.4381C67.2824 25.4381 67.5684 25.152 67.5684 24.7992C67.5684 24.4464 67.2824 24.1604 66.9296 24.1604C66.5768 24.1604 66.2908 24.4464 66.2908 24.7992C66.2908 25.152 66.5768 25.4381 66.9296 25.4381Z" fill="#E0E0E0"/>
<path d="M69.6971 24.7992C69.6971 24.9256 69.6596 25.0491 69.5894 25.1541C69.5192 25.2592 69.4195 25.3411 69.3027 25.3894C69.186 25.4378 69.0575 25.4504 68.9336 25.4258C68.8097 25.4011 68.6959 25.3403 68.6065 25.2509C68.5172 25.1616 68.4564 25.0478 68.4317 24.9239C68.4071 24.7999 68.4197 24.6715 68.4681 24.5548C68.5164 24.438 68.5983 24.3383 68.7033 24.2681C68.8084 24.1979 68.9319 24.1604 69.0583 24.1604C69.2277 24.1604 69.3902 24.2277 69.51 24.3475C69.6298 24.4673 69.6971 24.6298 69.6971 24.7992Z" fill="#E0E0E0"/>
<path d="M131.724 38.1788L132.965 33.701C132.965 33.701 133.41 31.883 133.518 31.4591C133.658 30.8979 133.264 30.7218 133.034 31.1039C132.945 31.2472 131.962 33.098 131.962 33.098C131.962 33.098 132.745 30.068 132.774 29.9576C133.028 28.9695 132.413 29.062 132.234 29.4262C132.055 29.7904 130.942 32.7726 130.942 32.7726C131.983 28.877 131.658 28.5337 131.362 28.471C131.067 28.4083 130.168 31.9726 130.168 31.9726C129.932 31.567 129.611 31.2168 129.228 30.9457C128.288 30.2979 126.717 30.9457 126.643 31.3875C126.568 31.8293 127.126 31.9547 127.126 31.9547C128.306 31.1935 129.515 32.1159 129.392 33.2383C129.27 34.3607 127.843 34.2085 127.667 33.4085C127.276 31.6502 126.673 32.2144 126.673 32.2144L127.27 36.0951L126.628 38.0415" fill="#FFBE9D"/>
<path d="M87.0354 56.4153L113.857 56.2361L114.595 74.4726L86.8235 74.198L87.0354 56.4153Z" fill="#455A64"/>
<path d="M87.0354 56.4152L100.66 45.4059L113.857 56.2361" fill="#263238"/>
<path d="M86.8381 74.1979C86.8023 74.1681 88.9516 71.8247 91.6353 68.9649C94.3189 66.1051 96.522 63.8155 96.5548 63.8453C96.5877 63.8752 94.4413 66.2185 91.7577 69.0783C89.074 71.9381 86.856 74.2308 86.8381 74.1979Z" fill="#263238"/>
<path d="M114.601 74.4726C114.568 74.5024 112.478 72.2039 109.935 69.3381C107.391 66.4723 105.347 64.126 105.385 64.0961C105.424 64.0663 107.508 66.3649 110.051 69.2306C112.595 72.0964 114.63 74.4427 114.601 74.4726Z" fill="#263238"/>
<path d="M113.857 56.2361L100.382 66.9888L87.0354 56.4153" fill="#263238"/>
<path d="M69.1124 35.8653H69.202L68.8438 34.6712L67.6945 30.086C67.6433 29.8819 67.6704 29.6661 67.7704 29.481C67.8704 29.2959 68.0361 29.155 68.2348 29.0859L69.0617 29.0561L71.8916 27.7337C72.0147 27.6879 72.1463 27.6697 72.2771 27.6805C72.408 27.6912 72.5348 27.7306 72.6488 27.7958C72.7627 27.8611 72.8609 27.9505 72.9364 28.0579C73.0119 28.1653 73.0629 28.288 73.0857 28.4173C73.1902 29.2621 73.7634 31.5248 74.3723 30.7308L74.4171 30.68C75.2739 29.5009 76.3425 28.8621 76.7814 28.8889C76.876 28.8968 76.9664 28.9319 77.0416 28.99C77.1167 29.048 77.1735 29.1266 77.2051 29.2162C77.2366 29.3058 77.2416 29.4026 77.2194 29.4949C77.1972 29.5873 77.1487 29.6713 77.0799 29.7367C77.0362 29.7939 76.9814 29.8416 76.9187 29.877C76.8865 29.8958 76.8556 29.9168 76.8261 29.9397C76.4471 30.2745 76.1048 30.6487 75.8052 31.0562C75.5302 31.4154 75.3191 31.8193 75.1813 32.2502C75.0291 32.7279 74.9186 33.1458 74.832 33.498L75.0529 35.8384" fill="#FFBE9D"/>
<path d="M76.6707 15.0914C76.6707 15.0914 73.3601 14.4586 68.6107 10.139C63.8613 5.81945 61.5089 -0.0314992 60.9418 0.0132785C60.3746 0.0580562 57.8819 -1.01959 53.4549 9.34793C49.0279 19.7155 50.9623 22.0409 51.8967 21.9961C52.831 21.9514 59.1387 19.999 63.1239 20.3364C67.1091 20.6737 72.2705 22.5991 72.2705 22.5991L76.6707 15.0914Z" fill="#455A64"/>
<path d="M83.8174 20.4737L82.7547 22.6379L82.28 23.6081C81.9659 24.2456 81.4201 24.739 80.7543 24.9876C80.0885 25.2362 79.3529 25.2211 78.6978 24.9455L71.5752 22.6887L75.4052 13.2078L82.5547 16.7601C83.2118 17.088 83.713 17.662 83.9495 18.3573C84.1859 19.0526 84.1384 19.8132 83.8174 20.4737Z" fill="#263238"/>
<path d="M79.8472 24.0052L77.7277 28.4829L76.5933 28.2023L69.4289 34.3787L67.2646 30.4233C67.2646 30.4233 71.5484 28.4322 72.3066 26.865C73.0649 25.2977 72.1275 24.9694 72.1275 24.9694L74.1037 22.5812L79.8472 24.0052Z" fill="#263238"/>
<path d="M53.8399 9.52404C51.4936 15.1392 50.5921 20.1095 51.8249 20.6259C53.0578 21.1423 55.9624 17.0079 58.3088 11.3928C60.6551 5.77764 61.5566 0.807317 60.3237 0.290882C59.0909 -0.225554 56.1863 3.90892 53.8399 9.52404Z" fill="#263238"/>
<path d="M84.51 23.5395L82.5815 22.9932L83.701 20.7095L85.1578 21.5603L84.51 23.5395Z" fill="#455A64"/>
<path d="M73.4229 23.3962L78.6499 26.5246L79.2559 25.253L73.4229 23.3962Z" fill="#455A64"/>
<path d="M83.701 20.7095L82.5815 22.9932L82.9756 23.1036L83.8741 20.811L83.701 20.7095Z" fill="#455A64"/>
<path d="M82.3964 21.2678C82.3725 21.3305 81.4083 20.9693 80.2441 20.4976C79.0798 20.026 78.1544 19.5662 78.1843 19.5035C78.2141 19.4409 79.1754 19.8021 80.3396 20.2737C81.5038 20.7454 82.4232 21.2051 82.3964 21.2678Z" fill="#455A64"/>
<path d="M82.9574 19.9095C82.9276 19.9722 82.0619 19.6319 81.0051 19.1542C79.9484 18.6766 79.1274 18.2348 79.1573 18.1721C79.1871 18.1094 80.0528 18.4497 81.1066 18.9304C82.1604 19.411 82.9753 19.8498 82.9574 19.9095Z" fill="#455A64"/>
<path d="M81.6949 22.6917C81.6949 22.7245 81.459 22.6917 81.0978 22.5782C80.9127 22.5275 80.6978 22.4618 80.459 22.3872C80.2202 22.3126 79.9724 22.1902 79.7067 22.0887C78.647 21.6319 77.835 21.1931 77.8589 21.1244C77.8828 21.0558 78.7545 21.423 79.8023 21.8618C80.065 21.9722 80.3097 22.0946 80.5396 22.1842L81.1516 22.42C81.4949 22.5544 81.7038 22.6588 81.6949 22.6917Z" fill="#455A64"/>
<path d="M58.912 8.1479C58.912 8.1479 56.0014 6.4553 54.5476 10.3629C53.0939 14.2705 56.1178 14.8198 56.1178 14.8198C57.3581 12.7381 58.2987 10.4921 58.912 8.1479Z" fill="#455A64"/>
<path d="M61.8195 3.45819C61.8125 3.70719 61.7825 3.95502 61.73 4.19851C61.6524 4.67316 61.5449 5.36273 61.3837 6.20754C61.2762 6.62546 61.1568 7.0822 61.0285 7.57177C60.9628 7.81655 60.8971 8.07029 60.8285 8.33L60.721 8.73002C60.6822 8.86435 60.6314 8.99271 60.5867 9.13003L59.9896 10.8137C59.9389 10.9599 59.8852 11.1122 59.8314 11.2555C59.7777 11.3988 59.706 11.554 59.6434 11.6943L59.2433 12.5899C59.109 12.8884 58.9747 13.1869 58.8403 13.4854C58.7717 13.6287 58.715 13.7839 58.6373 13.9153C58.5597 14.0466 58.4881 14.1899 58.4105 14.3272C58.112 14.8675 57.8134 15.3929 57.5448 15.8915C57.4731 16.0139 57.4104 16.1392 57.3358 16.2556L57.1089 16.5989L56.6701 17.2527L55.885 18.4229C55.3566 19.1005 54.9118 19.6379 54.6074 20.008C54.4567 20.2075 54.2911 20.3951 54.1118 20.5692C54.2331 20.3509 54.3739 20.1441 54.5327 19.9513L55.7447 18.3184L56.5029 17.1243C56.6373 16.9124 56.7806 16.6945 56.9239 16.4706L57.1477 16.1273C57.2194 16.0109 57.2791 15.8855 57.3507 15.7601L58.1985 14.2018L58.4194 13.8048C58.4941 13.6675 58.5508 13.5063 58.6194 13.375L59.0165 12.4794C59.1508 12.1809 59.2851 11.8824 59.4135 11.5838C59.4762 11.4376 59.5508 11.2853 59.6045 11.151L59.7628 10.7122C59.9717 10.133 60.1777 9.57482 60.3598 9.04346C60.4046 8.90913 60.4583 8.78076 60.5001 8.64942C60.5419 8.51807 60.5717 8.38374 60.6106 8.25537C60.6822 7.99865 60.7509 7.74789 60.8195 7.50609C60.9568 7.02249 61.0852 6.56875 61.2046 6.15679C61.3777 5.32691 61.521 4.6642 61.6225 4.17165C61.6699 3.92914 61.7357 3.69062 61.8195 3.45819Z" fill="#263238"/>
<path d="M79.0109 46.1253L76.0496 34.8802L68.6523 35.0772L70.9539 50.7703C71.2524 54.1853 73.2585 56.4182 76.6258 56.9615C78.6557 57.2869 80.8558 55.3525 82.4857 54.1017C83.5484 53.2838 83.7365 53.445 84.835 52.4479L89.6113 49.003L89.7277 49.5702H89.6979L90.5068 59.1586L100.376 66.9201L112.146 57.4899L111.878 53.4092C111.908 53.4092 111.934 53.3495 111.878 53.3495L111.579 48.7284L117.609 55.6451C118.318 56.679 119.296 57.4997 120.437 58.0188C121.579 58.5379 122.84 58.7356 124.085 58.5906C125.33 58.4456 126.513 57.9634 127.504 57.1961C128.495 56.4287 129.259 55.4052 129.711 54.2361L132.816 38.4146L125.998 36.9489L122.806 48.3403L115.197 39.5848C110.803 33.8592 105.675 34.3428 105.675 34.3428L96.2175 34.1757H96.1966C95.916 34.1757 90.6322 34.3518 87.05 38.1788L79.0109 46.1253Z" fill="#FF725E"/>
<path d="M115.564 40.2087C115.564 40.2087 115.463 40.1609 115.266 40.0983C114.97 40.0076 114.66 39.9752 114.352 40.0027C113.866 40.055 113.393 40.1903 112.952 40.4027C112.43 40.6356 111.89 40.9998 111.26 41.367C110.587 41.8086 109.805 42.0564 109 42.0834C108.552 42.0578 108.112 41.9569 107.698 41.7849C107.275 41.6177 106.854 41.4117 106.412 41.2356C105.491 40.8617 104.481 40.7662 103.507 40.961C102.492 41.155 101.561 41.7252 100.609 42.2774C100.137 42.5583 99.6451 42.8038 99.137 43.0118C98.639 43.2069 98.1168 43.3334 97.5847 43.3879C96.5708 43.5015 95.5447 43.3598 94.5995 42.976C93.7655 42.6054 92.9788 42.1363 92.2561 41.5789C91.5666 41.0804 90.9307 40.6057 90.3068 40.2445C89.7468 39.9171 89.144 39.669 88.5157 39.5072C88.0421 39.3873 87.5518 39.347 87.0649 39.3878C86.6511 39.4339 86.2476 39.5479 85.8708 39.7251L85.9395 39.6833C85.9873 39.6565 86.0589 39.6176 86.1574 39.5699C86.4431 39.4477 86.7446 39.3663 87.053 39.3281C87.5474 39.2765 88.047 39.3088 88.5306 39.4236C89.1698 39.5783 89.7838 39.8225 90.3546 40.149C90.9874 40.5072 91.6293 40.9819 92.3218 41.4744C93.0383 42.0218 93.818 42.4808 94.6443 42.8416C96.0644 43.4117 97.6481 43.4202 99.0743 42.8655C99.5757 42.6601 100.061 42.4165 100.525 42.1371C101.471 41.5879 102.421 41.0058 103.471 40.8087C104.474 40.6142 105.512 40.718 106.457 41.1073C107.352 41.4685 108.149 41.9341 108.994 41.961C109.839 41.9879 110.573 41.6207 111.197 41.2774C111.821 40.9341 112.373 40.558 112.908 40.3311C113.359 40.1204 113.844 39.9911 114.34 39.949C114.654 39.925 114.97 39.9677 115.266 40.0744C115.371 40.1047 115.472 40.1499 115.564 40.2087Z" fill="#FAFAFA"/>
<path d="M121.048 45.8089C121.014 45.9549 120.96 46.0955 120.887 46.2268C120.683 46.6065 120.389 46.9303 120.031 47.1701C119.467 47.557 118.813 47.7896 118.132 47.8448C117.235 47.9029 116.334 47.8628 115.445 47.7254C114.472 47.6269 113.356 47.5075 112.26 47.8687C111.7 48.0801 111.169 48.3598 110.678 48.7015C110.152 49.0703 109.596 49.3938 109.015 49.6687C107.735 50.2244 106.32 50.3895 104.946 50.1434C104.223 50.0157 103.525 49.7707 102.881 49.418C102.224 49.0657 101.612 48.6299 100.979 48.2239C100.371 47.8009 99.7056 47.4672 99.0029 47.2328C98.3145 47.0353 97.5913 46.9895 96.8834 47.0985C95.4804 47.3045 94.1968 47.8687 92.937 48.212C92.3193 48.3981 91.6802 48.5045 91.0355 48.5284C90.4243 48.5523 89.8148 48.4507 89.2444 48.2299C88.1428 47.7761 87.3309 47 86.6114 46.3313C85.9873 45.6975 85.299 45.1302 84.5576 44.6387C83.9896 44.2812 83.3453 44.0623 82.677 43.9999C82.2552 43.9614 81.83 44.0123 81.4292 44.1491C81.1575 44.2506 81.0292 44.3372 81.0232 44.3283C81.1457 44.2431 81.278 44.1729 81.4172 44.1193C81.8206 43.9662 82.253 43.905 82.683 43.9402C83.3633 43.9924 84.0214 44.2063 84.6024 44.5641C85.3566 45.0508 86.0571 45.6162 86.6921 46.2507C87.4175 46.9164 88.2234 47.6746 89.2981 48.1105C89.8529 48.3274 90.4461 48.429 91.0415 48.409C91.6746 48.3819 92.3017 48.2735 92.9072 48.0866C93.5341 47.9105 94.1699 47.6896 94.8237 47.4896C95.488 47.2474 96.1722 47.0636 96.8685 46.9403C97.598 46.8255 98.3437 46.8714 99.0537 47.0746C99.7702 47.315 100.449 47.6546 101.072 48.0836C101.707 48.4956 102.316 48.9314 102.958 49.2777C103.589 49.6223 104.272 49.8622 104.979 49.9882C106.324 50.2309 107.71 50.0721 108.964 49.5314C110.159 49.012 111.084 48.1105 112.224 47.7403C112.769 47.5693 113.337 47.4877 113.908 47.4985C114.429 47.5078 114.949 47.5457 115.466 47.6119C116.344 47.7534 117.235 47.8004 118.123 47.7523C118.792 47.7042 119.437 47.4853 119.998 47.1164C120.352 46.8842 120.648 46.5724 120.86 46.2059C121.001 45.9582 121.04 45.8059 121.048 45.8089Z" fill="#FAFAFA"/>
<path d="M129.676 53.4092C129.55 53.2816 129.411 53.1684 129.261 53.0719C128.833 52.8385 128.338 52.7634 127.861 52.8599C127.16 53.0418 126.512 53.3876 125.971 53.8689C125.646 54.1226 125.308 54.3973 124.926 54.645C124.54 54.9234 124.098 55.1141 123.631 55.2038C123.164 55.2935 122.683 55.2801 122.222 55.1645C121.797 55.0711 121.379 54.9494 120.971 54.8003C120.58 54.6689 120.213 54.5346 119.86 54.4421C119.535 54.3564 119.202 54.3005 118.866 54.2749C118.382 54.2234 117.892 54.3017 117.448 54.5018C117.15 54.654 117 54.8003 116.989 54.7824C117.017 54.7442 117.05 54.71 117.087 54.6809C117.128 54.6411 117.173 54.6051 117.221 54.5734C117.283 54.5253 117.349 54.4833 117.418 54.448C117.867 54.2163 118.371 54.113 118.875 54.1495C119.218 54.1685 119.559 54.2195 119.893 54.3017C120.254 54.3913 120.627 54.5226 121.016 54.651C121.789 54.9018 122.678 55.2092 123.604 55.0361C124.048 54.9414 124.47 54.7609 124.846 54.5047C125.219 54.2629 125.553 53.9913 125.884 53.7405C126.445 53.2521 127.116 52.9078 127.84 52.7375C128.34 52.646 128.857 52.7405 129.293 53.0032C129.404 53.0803 129.505 53.1716 129.592 53.2748C129.625 53.3158 129.654 53.361 129.676 53.4092Z" fill="#FAFAFA"/>
<path d="M131.174 44.8298C131.1 44.8992 131.012 44.9539 130.917 44.991C130.664 45.1052 130.392 45.1739 130.114 45.194C129.704 45.2212 129.292 45.1839 128.894 45.0835C128.412 44.9565 127.94 44.7989 127.479 44.6118C127.025 44.43 126.555 44.2901 126.076 44.1939C125.681 44.1238 125.276 44.1238 124.881 44.1939C124.521 44.2686 124.18 44.4159 123.878 44.6268C123.938 44.5435 124.013 44.4725 124.099 44.4178C124.328 44.2585 124.585 44.1459 124.858 44.0865C125.261 44.0003 125.677 43.9901 126.084 44.0566C126.577 44.148 127.059 44.288 127.523 44.4745C127.98 44.6571 128.445 44.8165 128.917 44.9522C129.302 45.0542 129.699 45.1004 130.097 45.0895C130.468 45.0666 130.833 44.9787 131.174 44.8298Z" fill="#FAFAFA"/>
<path d="M111.38 56.1137C111.127 55.979 110.867 55.8594 110.6 55.7555C109.858 55.5065 109.07 55.425 108.293 55.5167C107.146 55.6703 106.034 56.0239 105.009 56.5615C103.815 57.1197 102.57 57.866 101.111 58.3526C100.402 58.5899 99.6609 58.7177 98.9135 58.7317C98.2168 58.7201 97.5261 58.6013 96.8656 58.3795C96.2737 58.1794 95.6928 57.9482 95.1253 57.6869C94.5909 57.4511 94.0954 57.2212 93.6327 57.0421C92.9147 56.7308 92.1539 56.5295 91.3759 56.4451L91.0087 56.4242H90.7371C90.6626 56.4312 90.5876 56.4312 90.5132 56.4242C90.5868 56.4075 90.6617 56.3975 90.7371 56.3943L91.0057 56.3704C91.1132 56.3704 91.2386 56.3704 91.3789 56.3704C92.1672 56.4299 92.9411 56.6143 93.6715 56.9167C94.1402 57.0928 94.6387 57.3167 95.1641 57.5466C95.7301 57.8015 96.309 58.0267 96.8985 58.2212C97.5452 58.4345 98.2206 58.5482 98.9015 58.5586C99.6329 58.5432 100.358 58.4164 101.051 58.1824C102.487 57.7168 103.738 56.9884 104.932 56.4242C105.975 55.8841 107.108 55.5372 108.275 55.4002C109.067 55.3168 109.867 55.419 110.612 55.6988C110.887 55.7993 111.145 55.9391 111.38 56.1137Z" fill="#FAFAFA"/>
<path d="M70.6108 48.4836C70.6531 48.4531 70.7007 48.4308 70.7511 48.4179C70.9008 48.3783 71.0588 48.3846 71.2049 48.4358C71.4385 48.5116 71.6456 48.6524 71.8019 48.8418C71.9882 49.0956 72.1464 49.3688 72.2736 49.6568C72.4338 49.9897 72.658 50.2879 72.9333 50.5344C73.2583 50.8046 73.6337 51.0075 74.0378 51.1314C74.9823 51.407 75.9787 51.4551 76.9454 51.2718C77.9226 51.0819 78.9123 50.9632 79.9067 50.9165C80.7335 50.8982 81.5474 51.1235 82.2471 51.5643C82.7238 51.8561 83.0967 52.2906 83.3128 52.8061C83.3921 52.9954 83.4347 53.198 83.4381 53.4032C83.3873 53.2121 83.3265 53.0237 83.2561 52.839C83.0273 52.3484 82.6546 51.9391 82.1874 51.6658C81.5006 51.2509 80.7086 51.0436 79.9067 51.0688C78.9202 51.1229 77.9387 51.2456 76.9693 51.4359C75.9759 51.6237 74.952 51.5695 73.9841 51.2777C73.563 51.1401 73.1741 50.9188 72.8408 50.627C72.5559 50.367 72.3264 50.0523 72.1661 49.7015C72.0476 49.4171 71.8995 49.146 71.7243 48.8926C71.5851 48.7106 71.398 48.5711 71.184 48.4896C70.9992 48.4221 70.7969 48.42 70.6108 48.4836Z" fill="#FAFAFA"/>
<path d="M77.0857 39.3639C76.7767 39.1182 76.4229 38.9347 76.0439 38.8236C75.6319 38.7172 75.2036 38.6888 74.7812 38.74C74.2659 38.8139 73.7635 38.9596 73.2886 39.1729C72.7751 39.3938 72.3005 39.6475 71.8617 39.8624C71.4744 40.0601 71.0756 40.2345 70.6676 40.3849C70.39 40.4824 70.1043 40.5553 69.8139 40.6028C69.7081 40.6262 69.5994 40.6333 69.4915 40.6237C69.8767 40.5307 70.2564 40.416 70.6288 40.2804C71.0288 40.1181 71.4204 39.9358 71.802 39.7341C72.2348 39.5132 72.7125 39.2565 73.2349 39.0296C73.7269 38.8097 74.2492 38.6648 74.7842 38.5997C75.2246 38.5513 75.6703 38.5919 76.0947 38.7191C76.3801 38.8055 76.6465 38.9453 76.8798 39.1311C76.9615 39.1961 77.0312 39.2749 77.0857 39.3639Z" fill="#FAFAFA"/>
<g opacity="0.3">
<path d="M98.7014 65.5887C102.531 63.3677 106.967 60.7616 109.179 56.9317C110.594 54.4778 111.299 51.5404 111.568 48.7224L112.144 57.4839L100.373 66.9141L98.7014 65.5887Z" fill="black"/>
</g>
<g opacity="0.2">
<path d="M88.7666 36.6056C87.9188 39.9203 86.0846 42.8996 83.5067 45.1492C82.8932 45.7275 82.1734 46.1817 81.3873 46.4865C80.9941 46.6363 80.5734 46.6996 80.1536 46.6723C79.7338 46.6451 79.3248 46.5277 78.9543 46.3283L79.0111 46.1253L84.9814 40.2177L88.7666 36.6056Z" fill="black"/>
</g>
<path d="M79.7692 50.821C79.7453 50.821 79.8409 50.5494 79.9215 50.1135C80.0224 49.5442 80.0274 48.9621 79.9364 48.3911C79.8412 47.8205 79.6494 47.2703 79.3692 46.7642C79.1513 46.3761 78.9752 46.1671 78.9961 46.1432C79.1854 46.3012 79.3442 46.4924 79.4647 46.7074C79.78 47.2131 79.9921 47.7762 80.0886 48.3642C80.1877 48.9533 80.1674 49.5563 80.0289 50.1374C79.9845 50.3791 79.8965 50.6108 79.7692 50.821Z" fill="#263238"/>
<path d="M78.0588 49.3284C78.7185 48.4619 79.0199 47.375 78.9007 46.2925C78.9756 46.4376 79.0164 46.5979 79.0201 46.7612C79.1011 47.5533 78.8816 48.3471 78.4051 48.9851C78.22 49.218 78.0738 49.3284 78.0588 49.3284Z" fill="#263238"/>
<path d="M89.167 43.1491C89.2088 43.1491 89.4655 45.5373 89.7133 48.4627C89.9611 51.3882 90.1491 53.7883 90.1044 53.7913C90.0596 53.7943 89.8058 51.4031 89.5581 48.4776C89.3103 45.5522 89.1222 43.1521 89.167 43.1491Z" fill="#263238"/>
<path d="M105.101 34.0025C105.13 34.0532 105.152 34.1074 105.167 34.1637C105.222 34.3195 105.265 34.4791 105.296 34.6413C105.41 35.2448 105.401 35.8654 105.269 36.4653C105.073 37.3621 104.621 38.1827 103.967 38.8266C103.136 39.5923 102.054 40.0284 100.924 40.0532C99.7938 40.0779 98.6936 39.6895 97.8296 38.9609C97.1488 38.3458 96.6613 37.5462 96.4265 36.6593C96.2682 36.0658 96.2307 35.4466 96.3161 34.8384C96.3413 34.6747 96.3782 34.5131 96.4265 34.3548C96.4387 34.2979 96.4578 34.2428 96.4833 34.1906C96.5012 34.1906 96.4265 34.4234 96.3758 34.8473C96.3143 35.4488 96.367 36.0565 96.531 36.6384C96.7733 37.4972 97.2559 38.2688 97.9221 38.8624C98.763 39.5602 99.8274 39.931 100.92 39.9069C102.012 39.8828 103.059 39.4653 103.869 38.731C104.403 38.21 104.806 37.5693 105.044 36.8618C105.281 36.1542 105.347 35.4003 105.236 34.6622C105.17 34.2324 105.084 34.0085 105.101 34.0025Z" fill="#263238"/>
<path d="M122.445 51.9852C122.35 51.3659 122.333 50.7371 122.395 50.1135C122.405 49.4861 122.494 48.8624 122.657 48.2567C122.702 48.2567 122.607 49.0955 122.55 50.1225C122.493 51.1494 122.49 51.9852 122.445 51.9852Z" fill="#263238"/>
<path d="M123.643 52.5286C123.533 52.3413 123.447 52.1407 123.389 51.9315C123.219 51.428 123.081 50.9146 122.974 50.3942C122.866 49.8738 122.79 49.3475 122.744 48.818C122.714 48.5991 122.714 48.3772 122.744 48.1583C122.789 48.1583 122.878 49.1553 123.132 50.3643C123.386 51.5733 123.687 52.5136 123.643 52.5286Z" fill="#263238"/>
<path d="M111.573 52.7017C111.529 52.7017 111.43 51.021 111.353 48.9433C111.275 46.8657 111.248 45.185 111.29 45.182C111.332 45.179 111.43 46.8627 111.508 48.9374C111.585 51.0121 111.615 52.6987 111.573 52.7017Z" fill="#263238"/>
<path d="M100.869 39.5848C99.7906 39.5637 98.7611 39.1323 97.9901 38.3785C97.2191 37.6247 96.7646 36.6053 96.7192 35.528C96.6506 33.8921 96.5938 32.3905 96.5938 32.3905C96.5938 32.3905 93.1698 32.0263 92.9639 28.6322C92.7579 25.2381 92.9639 17.4049 92.9639 17.4049C94.8555 16.4805 96.9596 16.0781 99.0589 16.2392C101.158 16.4003 103.176 17.1191 104.905 18.3214L105.427 18.6856L105.176 35.4026C105.17 35.9605 105.053 36.5116 104.832 37.0243C104.612 37.5369 104.293 38.0009 103.892 38.3895C103.492 38.7782 103.019 39.0839 102.5 39.289C101.981 39.4942 101.427 39.5947 100.869 39.5848Z" fill="#FFBE9D"/>
<path d="M96.5908 32.3427C98.1606 32.2949 99.6807 31.7816 100.958 30.868C100.958 30.868 100.03 33.3637 96.6237 33.2233L96.5908 32.3427Z" fill="#EB996E"/>
<path d="M105.182 22.223C105.239 22.1961 107.484 21.42 107.523 23.7484C107.561 26.0768 105.218 25.632 105.212 25.5664C105.206 25.5007 105.182 22.223 105.182 22.223Z" fill="#FFBE9D"/>
<path d="M105.908 24.6738C105.908 24.6738 105.949 24.7007 106.018 24.7305C106.114 24.7684 106.221 24.7684 106.317 24.7305C106.561 24.638 106.761 24.2439 106.764 23.835C106.768 23.6362 106.726 23.4392 106.642 23.2588C106.619 23.1892 106.58 23.1259 106.528 23.0741C106.476 23.0222 106.413 22.9833 106.343 22.9603C106.297 22.9492 106.248 22.9547 106.204 22.976C106.161 22.9973 106.127 23.0329 106.108 23.0767C106.078 23.1424 106.108 23.1872 106.081 23.1932C106.054 23.1991 106.03 23.1544 106.048 23.0558C106.059 22.9986 106.09 22.9469 106.134 22.9096C106.166 22.8847 106.202 22.8663 106.24 22.8555C106.278 22.8448 106.319 22.8418 106.358 22.8469C106.454 22.8646 106.544 22.9065 106.619 22.9687C106.695 23.0309 106.753 23.1112 106.788 23.2021C106.891 23.4012 106.944 23.6227 106.94 23.8469C106.94 24.3156 106.699 24.7574 106.364 24.8619C106.302 24.8807 106.237 24.8854 106.173 24.8756C106.109 24.8658 106.048 24.8417 105.994 24.8052C105.914 24.7275 105.902 24.6768 105.908 24.6738Z" fill="#EB996E"/>
<path d="M94.5996 22.5424C94.598 22.6692 94.6462 22.7915 94.7339 22.883C94.8215 22.9746 94.9416 23.0281 95.0683 23.032C95.1298 23.0369 95.1917 23.0294 95.2503 23.01C95.3088 22.9906 95.3629 22.9597 95.4094 22.9191C95.4558 22.8785 95.4937 22.829 95.5207 22.7735C95.5478 22.7181 95.5635 22.6578 95.5668 22.5962C95.5685 22.4696 95.5208 22.3474 95.4339 22.2555C95.3469 22.1635 95.2276 22.109 95.1012 22.1036C95.0393 22.0987 94.977 22.1063 94.9181 22.1258C94.8591 22.1454 94.8047 22.1765 94.758 22.2174C94.7113 22.2583 94.6732 22.3081 94.646 22.3639C94.6188 22.4197 94.603 22.4804 94.5996 22.5424Z" fill="#263238"/>
<path d="M94.0029 22.0558C94.0627 22.1215 94.4298 21.8469 94.9522 21.8499C95.4746 21.8529 95.8478 22.1126 95.9164 22.0469C95.9851 21.9812 95.8836 21.9066 95.7164 21.7842C95.4906 21.6269 95.2215 21.5435 94.9463 21.5454C94.674 21.5449 94.4086 21.6306 94.188 21.7902C94.0298 21.9126 93.9761 22.029 94.0029 22.0558Z" fill="#263238"/>
<path d="M99.6148 22.6021C99.6132 22.7289 99.6614 22.8512 99.749 22.9427C99.8367 23.0343 99.9568 23.0878 100.083 23.0917C100.145 23.097 100.207 23.0898 100.266 23.0706C100.325 23.0514 100.38 23.0206 100.426 22.9799C100.473 22.9393 100.511 22.8896 100.539 22.834C100.566 22.7783 100.582 22.7177 100.585 22.6559C100.587 22.5288 100.539 22.4062 100.451 22.3141C100.363 22.2221 100.243 22.168 100.116 22.1633C100.054 22.1584 99.9922 22.166 99.9332 22.1855C99.8743 22.2051 99.8199 22.2362 99.7731 22.2771C99.7264 22.318 99.6883 22.3678 99.6611 22.4236C99.6339 22.4794 99.6182 22.5401 99.6148 22.6021Z" fill="#263238"/>
<path d="M99.1431 22.1633C99.2028 22.226 99.573 21.9543 100.095 21.9543C100.618 21.9543 100.991 22.217 101.057 22.1543C101.122 22.0916 101.024 22.011 100.857 21.8916C100.631 21.733 100.362 21.6495 100.086 21.6528C99.8143 21.6529 99.5491 21.7386 99.3282 21.8976C99.17 22.011 99.1133 22.1245 99.1431 22.1633Z" fill="#263238"/>
<path d="M97.2476 26.044C96.9715 25.9573 96.6858 25.9051 96.3968 25.8888C96.2625 25.8888 96.1371 25.85 96.1162 25.7574C96.1042 25.6203 96.1344 25.4828 96.2028 25.3634C96.3312 25.041 96.4625 24.7007 96.5998 24.3454C97.1461 22.8976 97.5431 21.7095 97.4954 21.6886C97.4476 21.6677 96.9431 22.82 96.3968 24.2678C96.2655 24.626 96.1371 24.9664 96.0177 25.2917C95.9336 25.4522 95.9093 25.6374 95.9491 25.8141C95.9682 25.8613 95.9977 25.9035 96.0354 25.9376C96.0732 25.9717 96.1181 25.9969 96.167 26.0112C96.2412 26.0301 96.3173 26.0401 96.3939 26.041C96.6772 26.0779 96.964 26.0789 97.2476 26.044Z" fill="#263238"/>
<path d="M98.779 26.3933C98.6954 26.3933 98.6924 26.9545 98.2058 27.3575C97.7193 27.7605 97.1163 27.6978 97.1133 27.7784C97.1133 27.8142 97.2476 27.8889 97.5043 27.8948C97.8369 27.8993 98.1604 27.7862 98.4178 27.5754C98.6641 27.373 98.8225 27.0831 98.8596 26.7664C98.8865 26.5306 98.8238 26.3903 98.779 26.3933Z" fill="#263238"/>
<path d="M99.0091 20.1065C99.0598 20.2468 99.5822 20.1811 100.203 20.2558C100.824 20.3304 101.311 20.4946 101.397 20.3692C101.436 20.3065 101.349 20.1722 101.149 20.0349C100.882 19.8668 100.58 19.7615 100.266 19.7268C99.9526 19.6922 99.635 19.7291 99.3375 19.8349C99.0986 19.9274 98.9882 20.0379 99.0091 20.1065Z" fill="#263238"/>
<path d="M94.1967 20.5424C94.2892 20.6618 94.6504 20.5424 95.0922 20.5424C95.5341 20.5424 95.8923 20.623 95.9878 20.4976C96.0236 20.4379 95.9669 20.3185 95.8057 20.1991C95.5916 20.0619 95.3403 19.9942 95.0863 20.005C94.8322 20.0088 94.5858 20.0924 94.3818 20.2439C94.2056 20.3722 94.1579 20.4857 94.1967 20.5424Z" fill="#263238"/>
<path d="M91.2354 15.1601C91.2121 14.9489 91.2425 14.7352 91.324 14.539C91.4054 14.3427 91.5351 14.1703 91.7011 14.0376C91.8725 13.9137 92.0822 13.8544 92.2931 13.8702C92.504 13.8861 92.7024 13.976 92.8534 14.1242C92.8219 13.982 92.8206 13.8348 92.8496 13.692C92.8785 13.5493 92.9371 13.4142 93.0215 13.2955C93.1059 13.1768 93.2142 13.0771 93.3395 13.0029C93.4648 12.9286 93.6043 12.8815 93.7489 12.8645C94.3042 12.8286 94.7788 13.2495 95.3132 13.3958C95.848 13.5049 96.4038 13.4389 96.8983 13.2078C97.4028 13.0048 97.8744 12.7242 98.3909 12.5391C99.4675 12.1453 100.656 12.1926 101.698 12.6705C102.74 13.1485 103.551 14.0185 103.955 15.0914C104.335 14.9983 104.734 15.0226 105.1 15.1612C105.465 15.2998 105.78 15.5461 106.003 15.8676C106.437 16.5256 106.61 17.3216 106.49 18.1005C106.416 18.6218 106.285 19.1333 106.099 19.6259C106.099 19.6707 106.099 19.7125 106.099 19.7572C106.063 21.626 105.851 23.823 105.054 23.835C103.663 23.8559 103.994 21.2349 103.994 21.2349C102.287 20.5782 102.922 18.0199 102.501 17.6318C102.081 17.2437 101.182 16.3422 97.6087 18.1691C96.2206 18.8766 94.3758 18.8557 93.3668 18.6259C93.3376 18.6216 93.3087 18.6156 93.2802 18.6079H93.2594H93.2295C92.9058 18.5268 92.5966 18.3959 92.313 18.2199C91.9778 18.0272 91.7131 17.7322 91.5578 17.3781C91.4835 17.2012 91.4623 17.0065 91.4967 16.8178C91.5312 16.6291 91.6198 16.4545 91.7518 16.3153C91.4695 15.9896 91.2898 15.5877 91.2354 15.1601Z" fill="#263238"/>
<defs>
<linearGradient id="paint0_linear_96_181" x1="147.243" y1="14.7899" x2="179.591" y2="14.7899" gradientUnits="userSpaceOnUse">
<stop stop-color="#005C97"/>
<stop offset="1" stop-color="#363795"/>
</linearGradient>
</defs>
</svg>
