<svg width="70" height="70" viewBox="0 0 70 70" fill="none" xmlns="http://www.w3.org/2000/svg">
<g clip-path="url(#clip0_34_184)">
<path d="M18.5208 44.7709L12.3958 38.5C15.2639 35.632 18.6307 33.3599 22.4963 31.6838C26.3599 30.0057 30.5278 29.1667 35 29.1667C39.4722 29.1667 43.6411 30.0174 47.5067 31.7188C51.3703 33.4202 54.7361 35.7292 57.6042 38.6459L51.4792 44.7709C49.3403 42.632 46.8611 40.9549 44.0417 39.7396C41.2222 38.5243 38.2083 37.9167 35 37.9167C31.7917 37.9167 28.7778 38.5243 25.9583 39.7396C23.1389 40.9549 20.6597 42.632 18.5208 44.7709ZM6.125 32.375L0 26.25C4.47222 21.6806 9.69792 18.1077 15.6771 15.5313C21.6562 12.9549 28.0972 11.6667 35 11.6667C41.9028 11.6667 48.3438 12.9549 54.3229 15.5313C60.3021 18.1077 65.5278 21.6806 70 26.25L63.875 32.375C60.1319 28.632 55.7939 25.7027 50.8608 23.5871C45.9258 21.4735 40.6389 20.4167 35 20.4167C29.3611 20.4167 24.0742 21.4735 19.1392 23.5871C14.2061 25.7027 9.86806 28.632 6.125 32.375ZM35 61.25L45.2812 50.8959C43.9688 49.5834 42.4375 48.5499 40.6875 47.7954C38.9375 47.0429 37.0417 46.6667 35 46.6667C32.9583 46.6667 31.0625 47.0429 29.3125 47.7954C27.5625 48.5499 26.0313 49.5834 24.7188 50.8959L35 61.25Z" fill="url(#paint0_linear_34_184)"/>
</g>
<defs>
<linearGradient id="paint0_linear_34_184" x1="0" y1="36.4584" x2="70" y2="36.4584" gradientUnits="userSpaceOnUse">
<stop stop-color="#005C97"/>
<stop offset="1" stop-color="#363795"/>
</linearGradient>
<clipPath id="clip0_34_184">
<rect width="70" height="70" fill="white"/>
</clipPath>
</defs>
</svg>
